<?xml version="1.0" encoding="UTF-8"?>
<svg id="Layer_1" data-name="Layer 1" xmlns="http://www.w3.org/2000/svg" viewBox="0 0 150 150">
  <defs>
    <style>
      .cls-1 {
        fill: #f15a22;
        stroke-width: 0px;
      }
    </style>
  </defs>
  <path class="cls-1" d="M79.18,5.56C40.4,5.56,8.86,37.11,8.86,75.89c0,5.98.77,11.77,2.18,17.32h-.02c.02.1.05.18.08.27.03.12.05.25.09.37l.04.04c2.59,8.92,9.28,14.45,22.35,14.83,19.11.56,41.07-8.86,55.63-17.2.35.57.77,1.1,1.25,1.59,3.07,3.07,7.9,3.34,11.27.78l15.27,20.23c-.31.24-.61.5-.9.78-2.93,2.93-3.3,7.43-1.13,10.77-19.39,11.33-47.41,18.74-69.7,13.13l-1.78-4.82-8.07-1.94,3.07,7.28,6.65,1.69c24.56,10.06,74.36-3.85,91.26-17.97l-37.65-49.87c-21.59,15.84-47.94,28.42-68.83,27.6-9.19-.36-13.73-2.37-15.67-8.54-1.32-5.24-2.03-10.71-2.03-16.35,0-6.58.97-12.93,2.75-18.94-.07.42-.14.83-.2,1.28-.27,1.99-.44,4.18-.47,6.21,0,.24,0,.48,0,.71,0,.2,0,.4,0,.6,0,.44.02.86.04,1.27.05,1.08.15,2.02.3,2.75,0,.02,0,.03.01.05.07.32.15.59.23.82.04.12.09.25.14.34.04,0,.07.01.11.07.11.13.34.56,1.04,2,.03.05.06.12.08.18.03.07.07.14.1.21.08.16.15.32.24.5.2.42.42.89.68,1.43.11.23.22.47.34.72.1.22.21.45.33.69.1.21.2.41.3.64-.13,0-.27,0-.42.01-.11,0-.21,0-.3.01.05.1.13.24.23.41.18.28.43.65.7,1.04.14.21.29.41.44.62.82,1.14,1.69,2.29,1.7,2.31.15-.22.3-.45.12-1-.08-.24-.22-.54-.45-.92-.11-.19-.24-.39-.4-.62-.14-.2-.28-.41-.44-.68-.13-.23-.28-.53-.43-.89-.2-.47-.42-1.06-.67-1.88-.22-.73-.47-1.64-.74-2.77,1.35,1.01,1.49,1.67,1.67,2.5.13.59.27,1.27.53,1.69.55.9,1.23,1.71,1.81,2.58.17.26.38.49.6.71.73.74,1.6,1.34,2.09,2.3.35.69.36,1.54.66,2.25.14.32.33.62.66.86.14.1.37.19.53.25,0,0,.02.01.03.01.29.12.66.32.96.4.35.09.71.16,1.07.24.74.16,1.49.31,2.22.49.62.15,1.26.02,1.9-.02.51-.03,1.02,0,1.5.28q2.51,1.46,3.39,1.56c.13.01.31.04.44.05.12.02.23.05.35.08.07.02.15.03.22.05.46.12.89.3,1.29.53.11.06.21.12.32.19.09.06.18.11.27.17,1.51,1.02,2.76,2.53,4.29,3.49.91.57,1.91.94,3.14.9,1.21-2.07,2.13-1.26,2.75.08,0,.02.02.04.02.05,1.66-.48,4.66-1.65,6.47-2.83l-1.39-2.55c.17-.12.35-.26.53-.39-.81.03-1.55.13-2.21.32-.15.04-.28.09-.42.15-.44.17-.84.39-1.19.67-.86.7-1.43,1.75-1.6,3.33-1.37-.99-4.16-.29-5.73-.73-.79-.22-1.28-.73-1.11-1.89.14-.97.02-1.81-.14-2.44-.02-.09-.05-.19-.07-.27-.03-.09-.05-.17-.08-.25-.15-.44-.3-.71-.31-.71-.22-.11-.44-.19-.66-.25-.42-.11-.83-.13-1.25-.11-.17,0-.34.02-.51.04-.81.1-1.63.29-2.44.23.26-.87.39-1.32.41-1.65.03-.35-.07-.57-.27-1.01.31-.74.48-1.15.6-1.51.15-.46.22-.84.36-1.69-.1-.09-.43-.37-.86-.51-.58-.2-1.34-.16-1.93.95-.35.66-.64,1.7-.79,3.3-.93-.06-1.53,1.27-2.59.65-.29-.17-.55-.35-.8-.52-.14-.1-.25-.2-.38-.3-.48-.38-.87-.77-1.18-1.16-.26-.32-.49-.63-.66-.93-.32-.54-.5-1.02-.61-1.38-.35-1.21.64-2.15.62-3.3-.02-.73-.97-1.08-.72-1.92.2-.67,1.02-1.7,1.73-2.47.2-.22.39-.41.56-.58.19-.19.36-.35.45-.42.11-.08.25-.14.42-.18.91-.22,2.57.07,3.26.21.18.04.32.07.32.07.09-.07.2-.17.28-.24-.19-.21-.44-.33-.68-.47-.07-.04-.14-.07-.19-.12.01-.06.03-.14.04-.21.01-.05.02-.1.03-.15.25-.15,1.18-.31,2.22-.44.31-.04.63-.08.94-.12.74-.09,1.45-.16,1.93-.2.36-.03.59-.05.6-.05.74.4,1.06,1.03,1.25,1.73.2.68.29,1.42.49,2.11.19.66.49,1.26,1.16,1.66.34-.37.55-.74.67-1.1.23-.68.12-1.35-.14-2.02-.15-.4-.35-.8-.57-1.2-.34-.63-.69-1.27-.89-1.92-.14-.46-.2-.92-.13-1.39.26-1.57,1.25-2.45,2.33-3.24.37-.27.75-.54,1.11-.82.18-.13.35-.27.52-.42.2-.17.38-.35.56-.55.03-.04.07-.07.11-.11-.03,0-.03,0-.04,0-.02-.02-.05-.05-.07-.08-.05-.06-.1-.12-.15-.17.01-.1.03-.23.04-.33.03-.01.07-.02.11-.03.07-.02.14-.04.2-.06.01-.12.03-.28.04-.4-.08-.03-.17-.07-.25-.1-.02,0-.04-.01-.05-.02l.02-.22.29-2.99.09-.95.09-.87c.01.24.02.64.03,1.08,0,.39,0,.79,0,1.14,0,.46,0,.8,0,.8.11-.07.17-.12.22-.5.03-.2.05-.49.08-.93.03-.48.08-1.12.13-2.03.18.35.49.63.57,1.04.44-.78.29-1.79.97-2.47,0,0,.05-.03.11-.06.29-.16,1.18-.65,1.92-1.04.55-.28,1.01-.51,1.09-.5.24-2.31.27-2.57,1.28-3.56.12-.12.26-.25.41-.4.17,0,.22.01,1.59-.79.23-.13.5-.29.81-.48.52-.31,1.17-.69,1.97-1.17-.04.09-.1.21-.14.3.01,0,.03,0,.04.01.21.08.48.15.7.14v.37c-.22.16-.39.29-.57.42-.8.59-1.27.93-1.52,1.16-.31.28-.32.41-.33.66.15,0,.33-.03.53-.07.53-.12,1.2-.39,1.89-.78,1.11-.61,2.25-1.5,2.89-2.43.42-.61.61-1.25.43-1.84-.01-.04-.01-.07-.02-.11-.69.47-.71,1.33-1.12,1.97-.53-.15-.97-.28-1.33-.39.36-.08.63-.47.63-.48,0,0,0-.01,0-.02,0,0,0,0,0-.01-.03,0-.04,0-.14,0-.19.03-.36.04-.5.03-.33-.01-.55-.09-.64-.14-.32-.16-.37-.35-.34-.63,0-.11,0-.11-.02-.12,0,0-.01,0-.02.01-.03.05-.23.57-.05.95-.39-.19-.58-.4-.72-.72-.05-.11-.1-.23-.15-.36-.03-.1-.07-.19-.1-.31-.58-.22-.62-.27-.87-.58.87-.24,1.51-.42,1.69-1.32-.26-.26-.37-.37-1.61.35-.34.2-.77.46-1.3.79-.9.56-2.11,1.34-3.77,2.4,1.05-1.12,1.84-1.96,2.5-2.61,1.11-1.1,1.87-1.68,2.85-2.14.76-.36,1.66-.65,2.96-1.06.13-.04.24-.08.38-.12.27.19.8.16,1.44-.01,1.72-.45,4.25-1.92,4.76-2.85q-.22-.56.1-1.38c-.06-.1-.14-.22-.2-.32-.36-.08-.72-.16-1.08-.24-.31,0-.31,0-.32,0-.22.02-.88.09-2.06.88-.04-.09-.09-.21-.13-.3.06-.08,4.93-3.38-.2-2q-.3.08-.45.03c-.09-.26.11-.54-.07-.79-.25-.34-.74-.25-.98-.59-.02-.03,0-.06-.01-.09-.03-.12.02-.24.18-.46q.29-.41-.34-1.56c-.39-.71-.68-1.24-.91-1.62-.72-1.18-.87-.91-1.45.24-.12.24.18.48-.01.71-.23.27-.64.02-.86.32-.22.31-.33.46-.41.56-.1.12-.14.15-.22.17-.1.03-.2.05-.3.06-.21.01-.4-.02-.58-.09-.45-.16-.86-.48-1.33-.58-.13-.24.16-1.82.62-2.19-.44-.15-.9.07-1.34-.1-.07-.03-.13-.09-.21-.2-.03-.04-.06-.08-.1-.15-.05-.08-.15-.27-1.24-.64-.24-.08-.3-.08-.48-.06-.6.17-1.23.16-1.84.21-.4.03-.8.09-1.18.25.17.94-.96,1.79-.19,2.77-.15.46-.73.61-.76,1.15-.04.63.58.99.6,1.6,0,.03.05,2.45-1.32,2.77-.06.01-.14.04-.22.07-.12.04-.24.09-.35.17-.08.05-.14.12-.19.2-.07.1-.11.22-.07.38-.07.09-.1.12-.38.33-.32,1.26.35,2.79-.61,3.89-.12.13-.24.26-.41.38-.18-.28-.41-.47-.66-.65-.44-.31-.95-.52-1.38-.84.37-1.11.21-1.51,0-2.02.09-.07.22-.18.32-.27.02-.02.05-.04.06-.05-.02-.06,0-.18-.02-.24-.12-.02-.28-.03-.4-.02-.01-.01-.02-.02-.03-.03-.22-.2-.46-.27-.7-.28-.18,0-.35.02-.53.04-.27.04-.54.08-.8.02-.01,0-.03,0-.04,0-.47-.13-.79-.49-1.15-.8-.18-.15-.37-.29-.59-.37-.12-.04-.27-.08-.4-.1-.36-.06-.66.07-.96.23-.21.11-.41.22-.63.29q-.19-.16-.42-1.6c-.08-.49-.09-.5-1.15-.59-.03,0-.06,0-.1,0,0-.04,0-.09,0-.13-.01-.38.17-.82.5-1.28.11-.15.23-.31.36-.47.25-.3.54-.61.85-.91.58-.57,1.23-1.12,1.84-1.61.34-.27.66-.52.94-.74.17-.13.33-.25.47-.36-.07-.19-.2-.26-.35-.31-.22-.07-.48-.06-.66-.2.33-.06.61-.11.88-.16.23-.04.43-.09.62-.13.98-.21,1.49-.42,2.05-.9.14-.12.29-.26.44-.42.19-.19.4-.42.65-.69.05-.05.08-.09.13-.14-.08.01-.14.03-.21.04-.99.17-1.27.18-2.16-.34.49-.18,1.05-.15,1.59-.16.7-.02,1.38-.12,1.86-.88-.09-.06-.23-.11-.33-.12,0,0,.36-.43.79-.43.12,0,.24.03.36.11q1.97-.73,2.49-1.19c.08-.07.16-.16.23-.26.03-.04.07-.09.09-.13.21-.37-.14-.76.05-1.13.17-.32.54-.32.78-.52.01-.01.03-.02.05-.03.13-.17.15-.38.24-.57,0,0-.05-.05-.11-.11-.28-.25-1.02-.8-1.59-.28-.21.19-.4.53-.53,1.1-.82.48-1.46,2.12-2.32,2.18-.21.01-.43-.04-.68-.27.05-.32.34-.59.61-.86.37-.36.69-.7.29-1.13-.38.15-.66.42-.9.72-.26.31-.49.66-.79.93-.09-.27.23-.83.46-1.19.12-.18.21-.3.21-.31-.03-.01-.04-.02-.35-.03-.1,0-.23,0-.4-.02.08-.13.14-.24.21-.35,1-1.64,1.01-1.68,1.01-1.91-.05-.04-.13-.1-.18-.14.27-.43.44-.69.73-.97.46-.43,1.23-.9,3.23-2.1-.05,0-.09-.01-.12-.01.63-.3,1.27-.58,1.91-.87.2-.03.42-.07.66-.11,1-.18,2.23-.45,3.19-.84.03-.01.05-.02.08-.03.2-.08.39-.17.56-.27.24-.13.44-.28.6-.43.15-.16.07-.25-.07-.31,1.98-.69,4.01-1.3,6.07-1.81.02,0,.06.01.07.02.02,0,.05,0,.05,0,.77-.06,1.4-.1,1.91-.14.74-.05,1.24-.07,1.6-.08.74-.01.83.07.99.21.02.02,1.96,2.22,1.33,3.41-.25.49-.25.5-.24.57.05.26.35.28.43.49.08.21.07.43.08.65,0,.13.03.26.1.38.11-.03.21-.08.31-.13.42-.21.81-.53,1.33-.29,1.12.51.6,1.43.59,1.43-.24.29-.58.42-.91.57-.3.14-.6.28-.79.58-.2.3-.37,1.03-.31,1.59,0,.09,0,.18.03.25.13.43.33.89.59,1.37.17.32.37.64.58.96.55.82,1.22,1.64,1.96,2.38.15.15.29.29.44.43.16.15.33.3.5.44.33.28.67.54,1,.76.31.21.62.4.93.55.11.06.22.12.33.16.04.02.08.03.12.05.26.1.5.18.74.23.76.15,1.43.03,1.91-.52.38-.44,1.01-3.58,1.11-4.08,0-.04.01-.07.01-.07.1-.52-.14-1.06.1-1.56,0-.02,0-.04.02-.06.11-.18.16-.25.48-.36.14-.05.34-.11.63-.2.02,0,.03,0,.04-.01.38-.12.71-.22,1-.31.55-.17.95-.3,1.25-.41.71-.26.83-.41.88-.69,0-.04.01-.08.02-.13.08-.61.13-.95.68-1.24.18-.1.38-.16.57-.23.76-.3,1.56-.5,2.34-.75.45-.14.88-.29,1.3-.51.3-.16.61-.29.91-.43.26-.12.51-.24.74-.41.01,0,.26-.2-.05-.61-.46-.6-1.15-.95-1.59-1.57,0-.01-.01-.03-.02-.04-.25-.39-.25-.87-.44-1.28-.22-.5-.12-.63.15-.92.38-.39.12-.55-.66-1.02-.66-.4-1.14-.69-1.51-.92-.02,0-.02-.02-.04-.02,10.45,1.19,20.18,4.8,28.61,10.26.4.78.85,1.59.85,1.6.22.35.39.64.52.9.48.93.46,1.29.46,1.34-.01.11-.03.2-.04.29-.16,1.2-.22,1.26-.97,1.8-.3.22-.29.32-.13.72,0,.01.13.3.33.71.57,1.16,1.8,3.38,3.09,3.65.15.03.31.03.46,0,.1-.02.2-.04.3-.09.37-.18.42-.62.36-1.07-.04-.31-.13-.63-.19-.84.05.03.36.34.79.78.52.53,1.2,1.25,1.86,1.97.51.56.98,1.11,1.33,1.55.18.23.34.44.43.6.32.54.62,1.06,1.16,1.06.11-.2.17-1.64-.18-2.3-.14-.26-.24-.47-.32-.66-.4-.9-.22-1.09.11-1.4,0-.19,0-.31-.15-.49-.14-.16-.41-.37-.91-.71-.43-.29-.61-.41-.89-.81-.1-.15-.23-.34-.38-.59-.04-.07-.09-.14-.14-.22-.09-.14-.18-.29-.28-.46-.17-.29-.13-.61-.09-.94.03-.23.04-.46-.02-.67-.03-.13-.09-.25-.2-.36-.09-.1-.17-.18-.25-.26.55.46,1.09.93,1.62,1.41.02.04.04.08.05.12.13.29.25.54.35.76.16.32.3.59.43.81.32.51.65.83,1.28,1.43.06.06.13.1.2.16.15.12.31.23.47.32.44.24.92.39,1.4.55.33.35.65.7.97,1.06-.3-.1-.61-.2-.92-.28-.17-.04-.34-.1-.51-.13.19.27.4.51.61.76.17.19.34.37.51.56.18.2.36.41.53.61.29.35.57.71.77,1.13-.6-.02-.76-.74-1.22-.99-.11-.06-.23-.1-.38-.08-.02.04-.05.09-.08.13,0,0,.1.18.22.41.27.51.72,1.33.78,1.41.02.02.06.08.09.12.2.27.63.88.6,1.19-.41-.04-.45-.04-.52-.02,0,0-.02,0-.03,0-.06.14-.09.3-.14.45.02.03.05.07.08.11h-.02c-.93-.07-1.44-.1-1.73-.11-.37,0-.38.05-.39.16-.09.05-.2.13-.29.18-.43-.26-.99-.42-1.57-.54l1.01.18c-.17-.13-.63-.48-1.45-.44-.16,0-.25,0-.43-.15-.15-.12-.35-.34-.69-.75-.15-.17-.3-.37-.45-.58-.32-.45-.59-.96-.7-1.45-.04-.16-.07-.32-.07-.47,0,0,0,0,0,0,0-.36-.5-1.81-.88-1.85-.04,0-.82,0-.95.33-.02.06-.03.13,0,.21.02.07.17.35.38.72.31.55.76,1.31,1.24,2.02.04.05.07.11.11.16.26.38.51.73.75,1,.14.16.22.27.29.35.12.15.14.2.15.22-.03.04-.06.06-.16.08-.05.01-.11.03-.2.04-.21.04-.49.08-.7.12,0,0,0,0,0,0-.06.09-.14.2-.2.29-.48-.01-.74-.02-.92,0-.24.03-.32.1-.49.27.02.1.05.25.09.42.05.23.13.53.25.92.06.19.12.38.2.61-.05.1-.13.23-.18.32-.65-.02-.85-.02-1.09.05-.1.03-.21.07-.37.13,0,.02,0,.03.03.1.04.1.13.34.38.96-.22.15-.53.31-.78.39,0,.02,0,.05,0,.08-.01.22-.07.5-.15.69-.6-.03-.92-.09-1.16-.19-.19-.08-.34-.19-.55-.34.07.13.16.27.25.41.06.09.12.19.18.26-.03.11-.08.25-.11.36-.22.09-.51.2-.74.26q-.52-.34-1.36-.36c-.04.1-.11.23-.15.33.15.13.33.29.49.45.07.06.14.13.21.19-.09.06-.2.15-.29.21.24.07.45.15.66.23.44.17.83.37,1.17.6.44.3.81.63,1.11.99.11.13.22.27.31.4.42.62.67,1.27.82,1.88.15.6.2,1.16.2,1.6,0,.55-.05.91-.06.93-1.02-.07-2.03-.26-3.04-.46-1.29-.25-2.58-.54-3.89-.67.11.21.29.46.45.64,0,0,0,.06,0,.15.02.53.12,2.53.35,4.18.16,1.23.39,2.26.71,2.36q-.22,1.97-.26,2.15c1.63-.13,1.96-.16,2.66,0q.27,1.13.28,1.15l2.06-.7,1.76-.6c1.05-.14,1.32-1.5.75-2.42.22-.92.36-1.51.53-1.92.28-.69.65-.87,1.55-1.24.05-.02.08-.03.13-.05,0-.47,0-.82.01-1.1.02-.96.05-1,.18-1.11.15-.13.3-.18.44-.19.21-.02.41.06.61.17.2.11.39.24.59.32.11.04.22.07.33.08.06-.11.12-.22.19-.33.26-.45.52-.79.81-.95.15-.08.32-.11.5-.07.18.04.38.15.61.35.01.01.45.53,1.08,1.29.51.62,1.13,1.39,1.78,2.21.49.63.99,1.29,1.44,1.9.71.99,1.28,1.87,1.51,2.44.03.07.06.14.08.2.34,1.13.24,1.31-1.18,1.54-.25.04-.52.08-.86.13.18.32.52.7.85,1.05.48.5.95.92.95.92.08-.26.05-.51.01-.77-.06-.36-.15-.71-.09-1.08.1.01.23.03.33.05,0-.01,0-.02.02-.03.27-.42.39-.92.64-1.35-.04-.13-.07-.24-.1-.35-.24-.84-.24-.89-.23-1.27.1-.03.24-.06.34-.09.14.19.32.44.46.63q-.11-.56-1.91-2.77c.03-.11.06-.25.08-.35-.57-.26-1.07-.49-2.03-2.08-.22-.36-.47-.8-.74-1.33-.3-.56-.62-1.22-1-2,0,0,0,0,0,0,.11-.17.33-.36.52-.44l.81.98,1.17,1.41,3.13,3.76s.02.03.4,1.16c.22.65.57,1.68,1.12,3.29,0,.02.01.04.02.06l.74,1.74.49,1.15.26.61.13.3c.01-.08.02-.17.02-.26.01-.16.02-.33.02-.48,0-.04,0-.08,0-.12-.02-.56-.15-1.09-.29-1.62-.08-.29-.15-.58-.21-.87-.06-.29-.11-.54-.15-.77-.09-.47-.16-.82-.21-1.11-.16-.94-.11-1,.08-1.15.42.09,1.21.58,1.57,1.22.06.11.14.22.17.34.04-.08.09-.17.13-.27.06-.14.12-.28.16-.4.11,0,.26-.02.36-.02.03-.2.02-.39.02-.59.01-.95-.21-1.85-.48-2.75-.4-1.31-.85-2.61-.68-4.01.18-.07.47-.05.65.03-.04.09-.1.22-.14.32.32.38.44.48.81.7q.11.45-.01,1.15c.33.38.48.87.76,1.27.17-.1.27-.22.33-.34.55,1.48,1.05,2.99,1.5,4.52-.31-.47-.7-.78-1.41-.59,0,.13-.06.28-.13.42-.04.08-.08.16-.13.21-.2-.07-.47-.15-.68-.2.04.2.18.44.32.58-.05.05-.12.06-.18.09-.36.18-.8.07-1.16.25-.01.08-.02.17-.03.26-.02.18-.03.37-.02.53.1.03.23.07.32.1.07.55.18,1.31.38,2.1.08.3.18.61.29.91.29.75.7,1.47,1.31,2.03.03.02.05.06.08.08.07-.08.17-.18.24-.25,0-.11,0-.25-.01-.35.5.43.68,1.12,1.23,1.5.02.01.03.03.05.05.07-.2.14-.49.16-.71.14.15.38.32.57.4.03.48.05.92.07,1.32.02.49.05.92.06,1.32.05,1.15.07,1.95.04,2.55-.01.26-.04.49-.07.69-.04.25-.09.48-.16.71-.05.16-.11.32-.17.48-.7-.06-.81-.21-1.04-.91-.19,0-.46.11-.59.26-.12,0-.21-.06-.32-.09-1.02-.25-1.52-1.17-2.06-2.04-.41-.66-.89-1.24-1.65-1.44-.16-.04-.31-.1-.5-.1-.24.44-.25.91-.26,1.38,0,.42,0,.85-.15,1.25-.1.04-.23.1-.33.14-.42-.32-4.26-3.88-5.69-5.38-.27-.28-.46-.5-.52-.6,0,0,0-.02,0-.03-.09-.21.05-.55.17-.74,0,0,0,0,0-.01.15-.25.22-.39.22-.93,0-.3-.03-.73-.08-1.39-.02-.31-.05-.66-.08-1.08-.58-.39-.7-.45-1.05-.65-.33.26-.44.33-1.17.19-.3-.06-.68-.15-1.25-.28-.06.06-.13.14-.19.21-.11.13-.21.26-.29.39-.36-.14-.7-.2-1.04-.21-.84-.03-1.63.28-2.42.6-1.06.44-2.11.9-3.26.64-.12-.03-.24-.05-.37-.1-.28-.02-.33-.03-.37-.03-.26.05-.45.09-.63.08-.32-.03-.6-.22-1.09-.83-.14-.1-.14-.1-.15-.1-.09.09-.23.19-.31.29-.28.35-.28.78-.32,1.2-.03.29-.07.58-.26.82-.07.09-.16.13-.23.2l.91,1.21.72.95.4.53.43.57.4.54,2.88,3.81.88,1.17,3.29,4.36.77,1.02,3.44,4.56,1.92,2.54.76,1,.83,1.1.83,1.1.8,1.06,1.92,2.55,1.38,1.83.49.66.76,1.01,1.61,2.13.35.46h0s2.44,3.24,2.44,3.24c2.68-7.42,4.16-15.41,4.16-23.74,0-38.77-31.55-70.32-70.32-70.32ZM16.5,52.36c.11-.28.22-.55.33-.83.11.36.21.72.19,1.11-.15-.09-.35-.19-.52-.28ZM46.86,17.44c-.86.8-1.65,1.71-2.24,2.45-.63.78-1.04,1.36-1.05,1.38.03.06.06.13.09.19.28,0,.55-.06.83-.08.01.05.03.12.04.17-.58.29-.67.35-.94.61v.14s0,0,0,0c.05.01.12.03.17.04-.56.98-1.77,1.31-2.23,2.39q-.43-.45.37-1.32-.46-.12-1.94,1.08c-.07.06-.45.3-1.7.31-.21,0-.44,0-.71-.01-.12-.18-.1-.41-.22-.59-.1.03-.19.06-.28.09-.23.08-.44.17-.62.28-.34.2-.61.47-.86.81-.35.47-.66,1.07-1.05,1.85-.16-.44.22-.81.17-1.24-.04,0-.08.03-.13.04,1.08-.96,2.19-1.89,3.33-2.78,0,0,.02.01.03.02q-.09.17-.1.21c.09.09.82.25.82.25.42-.14.59-.22.8-.42.14-.12.29-.29.54-.58.02-.03.03-.03.03-.04-.06-.01-.1,0-.53.24-.06.03-.1.05-.17.09.01-.05.07-.11.13-.18.23-.25.7-.56,1.06-.54.16,0,.2,0,.26-.05,0,0,.35-.32.29-.62-.2-.12-.33-.3-.37-.48.98-.69,1.98-1.36,2.99-2-.02.07-.04.14-.03.22,0,.02,0,.04.02.05.18.19,1.79-.77,2.22-1.22.06-.07.2-.34.24-.52.43-.24.85-.5,1.28-.73-.18.16-.36.31-.54.48Z"/>
  <path class="cls-1" d="M139.89,64.55c.48.33,1.24.68,1.5.59.01,0,.02-.01.03-.02,0,0,0-.02,0-.03,0,0-.6-.79-.6-.79-.11-.12-.22-.16-.26-.17-.19-.05-.4-.04-.58-.11-.07-.03-.12-.05-.16-.06-.17-.07-.18-.07-.21-.07-.15,0-.2.14-.1.3.06.1.2.22.39.35Z"/>
  <path class="cls-1" d="M128.67,52.34s.04.07.06.11c.02.03.02.06.05.09,0,0,.57.68.61.7.03-.01.04-.07.05-.14.03-.31-.06-1.05-.15-1.47,0,0-.18-.81-.29-.89,0,0-.01,0-.02,0,0,0-.02.03-.03.08,0,.01,0,.04-.01.05-.04.26.04.51.04.76,0,.28-.12.39-.2.47-.06.06-.12.11-.1.24Z"/>
  <path class="cls-1" d="M143.72,66.96s.33.06.36.03c.03-.03.06-.27.08-.49.02-.18.03-.34.03-.34,0-.01,0-.03,0-.05,0-.08-.02-.09-.04-.09-.1,0-.18.07-.28.06-.06,0-.14-.03-.2-.07-.09-.06-.14-.15-.24-.19-.08-.03-.11.01-.13.03-.01.02-.01.06-.02.09-.04.2.05.66.25.89.07.08.14.11.17.12Z"/>
  <path class="cls-1" d="M128.78,55.58c.12.14.38.07.43.31.05.22-.04.44.02.66.05.18.17.21.23.22.07.02.28-.03.48-.16.2-.13.4-.34.4-.64,0-.07,0-.16-.02-.22-.04-.25-.13-.48-.16-.73-.04-.27-.02-.54-.06-.8-.06-.42-.21-.47-.35-.48-.17,0-.51.12-.76.33-.1.08-.18.17-.24.28-.12.23-.15,1.04.03,1.23Z"/>
  <path class="cls-1" d="M125,55.55s.06-.03.09-.05c.02-.01.05-.02.07-.04,0,0,.3-.34.3-.35.03-.12-.18-.22-.54-.26-.07,0-.14,0-.22,0-.37,0-.76.1-.56.34.14.16.65.38.86.37Z"/>
  <path class="cls-1" d="M108.5,33.23c-.47.23-.68.38-.81.5-.05.05-.1.09-.14.14-.11.11-.22.3-.17.59.03.07.09.17.2.26.05.04.08.08.15.12.2.1.42.06.63.12,0,.02-.02.04-.03.06-.26.52-.45,1.52-.45,1.53-.07.4-.04.59.09.76,0,0,.03.01.04.02.19.17.71.15,1.26-.03.24-.08.49-.18.71-.33.15-.1.29-.2.44-.29.04-.03.08-.06.13-.08.24-.12.55-.03.74-.29.1-.15.06-.49-.12-1.02-.09-.27-.21-.43-.33-.61-.2-.3-.21-.4-.08-.71.06-.13.15-.35.08-.63-.07-.27-.28-.46-.44-.57-.03-.02-.07-.04-.1-.06-.06-.04-.12-.08-.18-.1-.08-.04-.16-.07-.25-.1-.17-.06-.33-.12-.49-.19-.09-.04-.15-.08-.19-.11-.04-.03-.06-.05-.08-.07-.02-.02-.03-.03-.05-.02-.07.02-1.63.42-.65.98.05.03.1.05.18.06.02,0,.03,0,.06.01-.03.03-.07.05-.11.07-.01,0-.02.02-.03.02Z"/>
  <path class="cls-1" d="M90.7,20.83c.13.09.56.03.8-.02.16-.03.46.02.73.13.42.18.76.51.3.9.21.26.46.21.71.17.14-.02.27-.04.4,0,.38.11.38.25.38.59.08.07.18.1.81.04.04,0,.07,0,.11-.01.49-.05.66-.07.82-.06.35.02.68.17,1.02.2.01,0,.02,0,.03,0,.04,0,.1,0,.15,0,.05,0,.12,0,.23-.02.14-.02.4-.07.84-.18.03,0,.05-.01.08-.02.06-.01.1-.02.16-.04.22-.05.46-.16.71-.28.19-.09.37-.2.54-.32.56-.36,1.01-.78.97-.95-.02-.07-.06-.13-.09-.19-.06-.1-.14-.2-.17-.32t.15-.04s0-.06,0-.08c-.08-.15-.31-.42-.59-.53-.05-.02-.11-.04-.15-.05-.2-.06-.41-.06-.62-.07-.21,0-.43-.03-.63-.11-.29-.12-.5-.41-.84-.39-.1.03-.2.06-.31.1-.28.09-.56.2-.86.26-.09.02-.18.03-.27.04-.3.04-.6.06-.89.16-.12.04-.14.14-.15.24-.01.1-.01.21-.11.26-.2.12-.41-.11-.62.02-.03.02-.07.05-.1.07-.04.2.03.41.04.61,0,.15-.02.31-.18.44-.11-.05-.98-.77-1.12-1.05,0-.02-.02-.03-.03-.05-.37-.6-1.67-.96-2.05-.66.11.32.49.25.66.48-.11.46-.64.39-.86.72Z"/>
  <path class="cls-1" d="M112.86,34.69c-.07,0-.06.05-.04.12l.47.04c-.25-.12-.35-.16-.43-.16Z"/>
  <path class="cls-1" d="M110.85,28.12s-.07,0-.17,0c-.25.02-.73.07-1.09.22-.18.08-.33.18-.39.32-.02.05,0,.12.01.17.07.46.38.83.45,1.29.04.28-.1.55-.12.82,0,.1,0,.19.04.29.11.04.35.02.86-.37.01-.01.03-.02.04-.03.17-.13.31-.23.43-.17.52.29-.08.86.09,1.27.01.03.03.05.05.08.11.24.23.41.35.54.27.28.57.38.92.48.13.04.22.06.32.09.53.14.65.18.78.28.03.14-.05.28.02.41.22.41.62.69.82,1.12.11.44-.42.18-.81,0q-.16-.08-.63-.12c.19.56.8.83.93,1.43.07.32-.23.5-.65.71-.04.02-.09.05-.13.08-.07.05-.13.11-.09.19.03.05.15.19.67.24.15.01.33.02.57.02.32,0,.91-.03,1.19.09.09.04.15.09.16.17.02.23-.13.26-.36.26-.04,0-.08,0-.13,0-.3,0-.39.08-.51.19-.22.2-.25.52-.44.74-.07.08-.16.15-.24.21-.19.16-.39.31-.56.49,0,.03,0,.06.01.09.07.02.1.02.36,0,.2-.02.52-.06,1.09-.13.18-.02.39-.05.62-.08.98-.13,1.97-.05,2.95-.19,0,0,.03,0,.04,0l1.68-.58s.01-.04.02-.06c-.22-.22-.48-.18-.73-.16-.15.02-.3.03-.45-.02-.18-.52.29-.99.1-1.51-.34-.93-.7-.91-.99-.89-.51.03-.89-.53-1.03-.78-.04-.07-.07-.12-.07-.12,0-.01.01-.03.02-.04.02,0,.05,0,.16.02.08.02.19.04.39.09.23.08.55.2.53.08,0,0,0-.01,0-.02-.03-.05-.09-.13-.27-.28-.11-.09-.24-.16-.36-.24-.25-.16-.51-.32-.77-.47-.49-.27-.98-.55-1.38-.96-.35-.35-.6-.8-1.02-1.07-.15-.1-.29-.17-.43-.23-.49-.24-.91-.32-1.19-.35-.04,0-.09-.01-.12-.01,0,0,0,0,0,0,.43-.39.99-2.32-.16-2.37-.21,0-.45.02-.6.04-.03,0-.05,0-.08.01-.35.05-.55.07-.66.05-.09-.02-.12-.05-.13-.14,0-.09.03-.2.08-.31.15-.38.44-.82.03-.85Z"/>
  <path class="cls-1" d="M59.65,41.8c-.4.15.51.6.69.69.25.12.45.18.64.21.7.12.97-.26.98-.26.08-.19-.55-.39-1.18-.52-.47-.09-.94-.15-1.12-.12Z"/>
  <path class="cls-1" d="M59.97,21.51c.17-.01.42.17.67.39.39.36.76.84.77.84.23.31.48.63.7.59.61-.12,1.53-2.51,1.54-2.54.02-.07.04-.18.04-.25l-2.52-.59-.59-.14-1.36-.32c.11-.09.23-.18,1.03-.55.09-.04.18-.09.29-.13.47-.21.71-.32.69-.45-.02-.14-.3-.48-.68-.84-.32-.3-.69-.62-1.05-.84-.24-.15-.47-.27-.65-.3-.34-.06-.7.05-1.03-.12-.35-.17-.31-.75-.78-.79-.06,0-.14.01-.21.02-.19.02-.42.07-.68.15-.26.08-.54.18-.8.28-.13.05-.26.1-.38.14-.7.27-.71.27-.82.26-.05-.12-.1-.23-.14-1.28-.28-.11-1.17.04-1.43.09-.45.11-1.21.57-1.98,1.16-.88.67-1.78,1.49-2.29,2.13-.38.48-.55.86-.34,1.01.32.22.96.25,1.63.2.9-.07,1.84-.29,2.04-.38-.05-.22-.09-.37,1.04-.49.95-.11,1.1-.34,1.19-.5.23.13.85.67.85.67.08.08.13.19.19.29.2.31.35.65.59.94.36.44,1.15.44,1.26,1.14,0,.05.02.09.02.15,0,0-.01.07-.03.17-.02.08-.05.2-.1.33-.23.62-.86,1.65-2.57,2.22-.05.02-.08.04-.13.05-.55.17-1.13.2-1.69.34-.24.06-.49.14-.71.26-.33.18-.34.75-.25.84.1.09.34.14.91.03.28-.06.64-.15,1.1-.32.55-.19.81-.28,1.2-.21.37.07.84.28,1.76.69q-.15.17-.92.46c.17.15.79.35,1.51.51.33.07.68.14,1.02.19.37.05.72.09,1.02.09.33,0,.61-.02.75-.1q-.03-.1-.19-.19s-.08-.04-.33-.28c-.17-.16-.46-.43-.92-.87-.09-.08-.17-.16-.27-.26.27.03.48.06.68.1.62.11.95.28,1.44.62.12.09.21.15.27.13.19-.06.43-.46.59-.87.15-.39.22-.79.08-.94-.2-.21-.45-.34-.71-.46-.3-.13-.6-.26-.87-.43-.25-.17-.46-.38-.58-.73-.12-.35.05-.63.28-.84.35-.31.85-.48.86-.48Z"/>
  <path class="cls-1" d="M67.39,39.77c.15-.2.26-.37.36-.53.11-.19.19-.35.22-.47.02-.07.02-.14,0-.18-.02,0-.06-.02-.08-.02-.24.08-.89.65-1.4,1.29-.61.77-1.03,1.67-1.62,2.44-.14.18-.3.33-.46.48-.22.2-.43.41-.6.66-.11.17-.02.21.03.24q.08.04,1.89.19s.02,0,.03,0c.56.05,1.05.1,1.5.17.3.05.59.11.87.18.07.02.13.03.2.05.09.03.21.07.31.08.29.02.6-.28.88.03.08.09.12.22.14.35.01.09.02.19.03.27,0,.2.1.22.16.21.17-.02.36-.23.49-.5.09-.18.17-.38.19-.57,0,0,0-.02,0-.02.06-.78-.52-1.99-1.1-2.63-.15-.17-.23-.25-.4-.26-.17-.01-.44.05-.96.17-.32.07-.39,0-.47-.27-.02-.06-.03-.1-.05-.15-.12-.38-.24-.48-.41-.57-.1-.06-.1-.09-.05-.2.07-.14.22-.31.31-.44Z"/>
  <path class="cls-1" d="M53.96,22.43c.36.24.84-.98.84-1,0,0,0,0,0,0,.15-.42.08-.62-.21-.57,0,0-.89.24-1.06.65-.02.06-.02.15.01.24.08.27.3.62.41.69Z"/>
  <path class="cls-1" d="M70.11,17.56l.66-.13h.03s.18-.09.22-.22c.03-.08,0-.14-.03-.19-.06-.1-.18-.14-.26-.23-.05-.06-.05-.11-.05-.14,0,0,0-.02-.01-.03,0,0-.09-.06-.33-.03,0,0-.02,0-.03.01-.33.09-1.13.59-.67.88.1.07.28.12.47.08Z"/>
  <path class="cls-1" d="M47.68,27.86s-.46.1-.86.25c-.18.07-.35.14-.45.22-.1.08-.15.23-.17.36-.02.13,0,.25.05.29.03.02.08.02.15.01.26-.04.75-.32,1.11-.58.18-.14.34-.27.4-.37.07-.11.09-.24-.24-.18Z"/>
  <path class="cls-1" d="M48.91,27.02s.09-.05.12-.1c.06-.12-.03-.33-.1-.39-.12-.11-.27-.18-.38-.29-.13-.14-.23-.31-.34-.46-.05-.07-.1-.15-.17-.21-.03-.03-.08-.06-.12-.08-.22-.14-.49-.11-.71-.25-.14-.09-.14-.29-.28-.38-.02-.01-.04,0-.06,0-.2.1-.88,1.08-.91,1.12-.08.12-.18.27-.26.4,0,.01-.02.02-.02.03l-.51.85-.15.25-.08.14q.44.04.48.26t.09.28c.05,0,.16-.1.34-.25.03-.03.05-.04.08-.07,0,0,.02-.02.03-.03.24-.2.57-.48.97-.66.19-.09.4-.17.62-.19.35-.04.7.1,1.06.09.11,0,.22-.01.32-.05Z"/>
  <path class="cls-1" d="M55.56,15.55c.19-.04.37-.1.54-.16.3-.11.52-.21.58-.24,0,0,.02-.01.03-.01,0,0,0,0,.01-.01,0,0-.04-.02-.06-.03-.08-.05-.26-.12-.52-.18-.12-.03-.25-.05-.39-.06-.2-.03-.4-.03-.59-.02-.05,0-.11,0-.16,0-.1.02-.14.05-.2.08-.33.16-.2.47-.08.57.18.15.51.13.85.06Z"/>
  <path class="cls-1" d="M42.55,21.54s-.02,0-.03,0c-.04.01-.08.03-.16.1-.3.24-.53.57-.86.78-.55.34-.72.45-.74.53,0,0,0,0,.01.01.04,0,.08,0,.22-.03.21-.05.24-.04.27-.02.07.05.06.17.15.21.03.01.18,0,.33-.03.95-.18,1.35-.58,1.35-.58.11-.13-.16-.63-.16-.64-.12-.2-.35-.33-.39-.33Z"/>
  <path class="cls-1" d="M49.8,28.33c.04-.11-.02-.13-.1-.13-.04,0-.08,0-.12,0,0,0-.53.1-.67.27-.09.11-.12.23-.13.35,0,.14.02.26.07.3.2.17.87-.56.95-.78Z"/>
  <path class="cls-1" d="M45.16,84.28c-.37.16-.16.75.07.84.16.06,1.13.24,1.11-.17-.01-.25-.69-.78-1.18-.67Z"/>
  <path class="cls-1" d="M46.39,82.62c.4.53,2.88.72,2.92.42.01-.1-1.27-1.66-2.21-2.78-.09-.1-.17-.2-.25-.29-.28-.33-.51-.6-.63-.74-.06-.07-.1-.12-.11-.12-.15-.11-.46-.32-.92-.47-.26-.09-.57-.16-.94-.18-.37-.02-.8,0-1.29.1-.21.07-.39.16-.57.25-.12.06-.22.12-.32.18-.51.31-.85.63-.85.65.13.13.92,0,1.56-.37.24-.14.45-.22.65-.26.55-.13.9.07.95.19-.05.09-.17.23-.47.06-.01,0-.02.02-.03.03,0,.06.05.1.08.15.03.06.06.12.11.17.26.23.72.36,1.07.45.39.1.6.2.76.32.13.1.22.22.28.38.04.09.07.19.11.31.09.29.15.47.34.71.13.17.23.29.23.39.02.31-.32.3-.47.46Z"/>
  <path class="cls-1" d="M48.97,85.28c.46.15.95.21,1.37.46.26.15.05.63.42.67.63.07.56-.81,1.11-.87.06,0,.11,0,.31.03.74.13,1.87.19,2.38.21.17,0,.27,0,.27,0,.04,0,.07-.01.09-.03.03-.02.05-.04.05-.08,0-.08-.01-.16-.03-.23-.02-.06-.04-.11-.06-.17-.05-.14-.09-.27-.05-.43.07-.3-.35-.54-.98-.73-.36-.11-.78-.2-1.2-.28-.28-.05-.56-.09-.83-.13-.84-.11-1.56-.16-1.67-.14-.07.02-.09.03-.12.06q0,.07.07.14c.35.33.46.68.48.96.02.26-.04.45-.05.47-.09.08-.46.02-.96-.07-.13-.02-.21-.03-.3-.05-.62-.09-.73-.08-.77-.06,0,.02.02.04.03.05.15.09.31.16.47.21Z"/>
  <path class="cls-1" d="M57.6,86.29c-.85-.27-.97-.24-1.14-.2-.37.26.11.75.56.82.32.05,1.36-.09,1.4-.2.02-.05-.05-.18-.82-.43Z"/>
  <path class="cls-1" d="M105.52,51.8l-2.12-2.81c-6.18,8.84-31.85,32.36-46.26,42.78,6.6-3.23,13.89-7.56,21.92-13.43,7.25-5.29,15.11-11.85,23.61-19.99l33.72,44.67c-1.68,1.3-3.44,2.56-5.26,3.78-1.07.71-2.15,1.4-3.22,2.06l3.77,4.99c.99-.61,1.96-1.23,2.92-1.87,2.74-1.83,5.44-3.84,8.09-6.06l2.26-1.89-1.78-2.36-37.65-49.87Z"/>
  <path class="cls-1" d="M66.63,136.32c3.24,1.96,6.71,2.49,9.65,1.14,2.95-1.35,4.81-4.33,5.43-8.06.63-3.73.02-8.2-1.97-12.54s-4.99-7.72-8.22-9.68c-3.23-1.96-6.71-2.49-9.65-1.14-2.95,1.35-4.81,4.33-5.43,8.06-.63,3.73-.02,8.2,1.97,12.54,1.99,4.34,4.99,7.72,8.22,9.68ZM58.91,115.59c.5-3,2-5.4,4.37-6.49,2.37-1.09,5.17-.66,7.77.92,2.6,1.58,5.02,4.3,6.62,7.79s2.09,7.1,1.59,10.1c-.5,3-2,5.4-4.37,6.49-2.37,1.09-5.17.66-7.77-.92-2.6-1.58-5.02-4.3-6.62-7.79-1.6-3.49-2.09-7.09-1.59-10.1Z"/>
  <path class="cls-1" d="M69.41,130.84l2.33,1.3c4.17-2.52,5.72-5.93,4.09-9.73-.42-1-1.11-1.86-1.95-2.43-.83-.53-1.75-.64-2.51-.31-1.01.26-1.62,1.27-1.56,2.49l1.45,1.15c.14-.54.44-.99.85-1.29.77-.29,1.4.11,1.87,1.23.56,1.57.32,3.16-.6,4.08-.8.97-1.68,1.78-2.61,2.42l-3.66-9.44,1.59-.73-.64-1.6-1.58.79-.83-2.34c-.32-1.04-.79-1.99-1.38-2.77-.63-.72-1.47-.82-2.08-.28-.42.4-.69,1.03-.75,1.76l.9.88c.08-.35.25-.63.48-.8.4-.26.78.11,1.17,1.12l1.17,3.09-1.5.75.58,1.57,1.53-.69,3.63,9.8Z"/>
  <path class="cls-1" d="M24.95,109.93l1.53,5.58c5.02,2.54,10.19,3.04,10.19,3.04l-1.93-6.11c-4.22-.97-9.78-2.51-9.78-2.51Z"/>
  <polygon class="cls-1" points="43.07 131.37 39.89 122.73 32.99 120.84 35.69 128.76 43.07 131.37"/>
  <path class="cls-1" d="M28.03,131.1l1.36,4.62s3.69,2.12,6.3,2.62l-1.99-5.34s-4.83-1.32-5.67-1.89Z"/>
  <path class="cls-1" d="M30.21,121.26s-3.93-1.34-5.66-2.31l1.81,5.69s2.27,1.21,6.1,2.21l-2.25-5.59Z"/>
  <path class="cls-1" d="M18.42,121.75l1,3.89c2.36,1.71,6.14,3.49,6.14,3.49l-1.43-4.61-5.7-2.77Z"/>
  <path class="cls-1" d="M20.47,108.43c-3.03-1.09-6.19-2.75-6.19-2.75l1.38,3.93c1.82,1.36,6.37,3.44,6.37,3.44l-1.55-4.61Z"/>
  <path class="cls-1" d="M19.85,114.67s-3.28-1.82-4.2-2.47l1.66,5.44s1.91,1.1,4.03,2.15l-1.49-5.12Z"/>
  <path class="cls-1" d="M11.4,119.74l.8,3.38c.62.91,3.02,3.09,3.02,3.09l-.75-4.09-3.07-2.38Z"/>
  <path class="cls-1" d="M12.8,114.92s-2.14-1.32-3.01-2.34l.67,2.79s1.21,1.27,3.2,2.76l-.86-3.21Z"/>
  <polygon class="cls-1" points=".74 90.35 .5 90.69 .5 91.5 .96 91.01 .74 90.35"/>
  <path class="cls-1" d="M5.34,110.67v2.46c.23.62,1.25,2.41,1.25,2.41l-.14-2.57-1.11-2.3Z"/>
  <polygon class="cls-1" points="11.32 108.11 8.53 106.22 8.88 109.03 11.69 111.05 11.32 108.11"/>
  <path class="cls-1" d="M5.03,99.33l-.06,2.02s1.88,2.22,2.45,2.62l-.03-2.46s-1.92-1.7-2.35-2.17Z"/>
  <polygon class="cls-1" points="5.52 104.93 3.89 103.23 3.82 105.55 5.49 107.56 5.52 104.93"/>
  <polygon class="cls-1" points=".62 98.39 .84 100.6 1.36 99.03 1.09 97.36 .62 98.39"/>
  <polygon class="cls-1" points="1.35 95.12 1.79 96.59 2.41 95.34 1.79 94.11 1.35 95.12"/>
</svg>