<svg xmlns="http://www.w3.org/2000/svg" xmlns:xlink="http://www.w3.org/1999/xlink" width="551.754" height="365.9" viewBox="0 0 551.754 365.9"><defs><linearGradient id="linear-gradient" x1="0.015" y1="0.5" x2="0.987" y2="0.5" gradientUnits="objectBoundingBox"><stop offset="0" stop-color="#22b8b0"></stop><stop offset="1" stop-color="#84bd00"></stop></linearGradient><filter id="Rectangle_28670" x="1.62" y="51.9" width="276.76" height="160" filterUnits="userSpaceOnUse"><feGaussianBlur stdDeviation="3"></feGaussianBlur></filter><filter id="Rectangle_28671" x="270.62" y="51.9" width="276.76" height="160" filterUnits="userSpaceOnUse"><feGaussianBlur stdDeviation="3"></feGaussianBlur></filter><filter id="Rectangle_28672" x="1.62" y="204.9" width="545.76" height="161" filterUnits="userSpaceOnUse"><feGaussianBlur stdDeviation="3"></feGaussianBlur></filter><clipPath id="clip-path"><rect id="Rectangle_28675" data-name="Rectangle 28675" width="69.038" height="51.612" fill="#22b8b0"></rect></clipPath><clipPath id="clip-path-2"><rect id="Rectangle_28676" data-name="Rectangle 28676" width="50.165" height="51.611" fill="#004b8b"></rect></clipPath></defs><g id="Sat_call_out_3" data-name="Sat call out 3" transform="translate(16023 8445.457)"><g id="Group_52045" data-name="Group 52045" transform="translate(-16024 -8445.457)"><g id="Group_52031" data-name="Group 52031" transform="translate(1)"><path id="Rectangle_26461" data-name="Rectangle 26461" d="M10,0H541.754a10,10,0,0,1,10,10V46a0,0,0,0,1,0,0H0a0,0,0,0,1,0,0V10A10,10,0,0,1,10,0Z" fill="url(#linear-gradient)"></path></g><path id="Path_127908" data-name="Path 127908" d="M167.32,6.148a5.3,5.3,0,0,1,3.645,1.044,3.7,3.7,0,0,1,1.143,2.88,4.653,4.653,0,0,1-.468,2.061,3.482,3.482,0,0,1-1.575,1.548,6.456,6.456,0,0,1-3,.585H165.79V19h-2.3V6.148Zm-.144,1.908H165.79v4.3h1.044A3.877,3.877,0,0,0,169,11.845a1.877,1.877,0,0,0,.765-1.683,1.939,1.939,0,0,0-.63-1.584A3.044,3.044,0,0,0,167.176,8.056ZM183.124,14.1a5.228,5.228,0,0,1-1.26,3.753,4.5,4.5,0,0,1-3.42,1.323,4.719,4.719,0,0,1-2.376-.594,4.147,4.147,0,0,1-1.638-1.728,5.873,5.873,0,0,1-.594-2.754,5.185,5.185,0,0,1,1.251-3.735A4.5,4.5,0,0,1,178.5,9.064a4.813,4.813,0,0,1,2.394.585,4.1,4.1,0,0,1,1.638,1.71A5.818,5.818,0,0,1,183.124,14.1Zm-6.966,0a4.39,4.39,0,0,0,.549,2.394,2.281,2.281,0,0,0,3.546,0A4.391,4.391,0,0,0,180.8,14.1a4.3,4.3,0,0,0-.549-2.376,1.99,1.99,0,0,0-1.791-.828,1.952,1.952,0,0,0-1.755.828A4.3,4.3,0,0,0,176.158,14.1Zm15.858.7q-.09-.342-.216-.855t-.261-1.071q-.135-.558-.243-1.026t-.162-.72h-.072q-.054.252-.162.72t-.234,1.035q-.126.567-.261,1.08l-.225.855L189.046,19h-2.484l-2.736-9.774h2.286l1.206,4.662q.126.486.243,1.071t.2,1.134q.081.549.135.891h.072q.036-.324.135-.882t.207-1.089q.108-.531.18-.8l1.4-4.986h2.484l1.35,4.986q.072.324.189.846t.207,1.053a8.046,8.046,0,0,1,.108.855h.072q.036-.288.126-.828t.216-1.152q.126-.612.27-1.1l1.224-4.662h2.25L195.616,19H193.1Zm11.952-5.742a4.141,4.141,0,0,1,3.1,1.17,4.464,4.464,0,0,1,1.143,3.258v1.152h-6.444a2.973,2.973,0,0,0,.738,2.061,2.572,2.572,0,0,0,1.944.729,6.985,6.985,0,0,0,1.692-.189,9.057,9.057,0,0,0,1.548-.549v1.818a6.642,6.642,0,0,1-1.494.5,9.178,9.178,0,0,1-1.854.162,5.618,5.618,0,0,1-2.529-.549,3.955,3.955,0,0,1-1.728-1.665,5.638,5.638,0,0,1-.621-2.772,5.351,5.351,0,0,1,1.242-3.816A4.276,4.276,0,0,1,203.968,9.064Zm0,1.674a1.975,1.975,0,0,0-1.485.585,2.723,2.723,0,0,0-.657,1.737h4.194a2.776,2.776,0,0,0-.513-1.665A1.8,1.8,0,0,0,203.968,10.738Zm11.646-1.674q.234,0,.513.018a2.431,2.431,0,0,1,.477.072l-.2,2.106q-.18-.036-.432-.063a4.271,4.271,0,0,0-.45-.027,3.126,3.126,0,0,0-1.35.3,2.377,2.377,0,0,0-1.017.918,2.9,2.9,0,0,0-.387,1.557V19H210.5V9.244h1.746l.324,1.692h.108a4.087,4.087,0,0,1,1.188-1.323A2.894,2.894,0,0,1,215.614,9.064Zm7.848,1.89H221.1V19h-2.268V10.954H217.27V9.874l1.566-.648V8.56a3.208,3.208,0,0,1,.891-2.6,3.742,3.742,0,0,1,2.439-.729,6.574,6.574,0,0,1,1.287.117,6.158,6.158,0,0,1,.963.261L223.84,7.3q-.306-.09-.675-.171a3.735,3.735,0,0,0-.8-.081,1.118,1.118,0,0,0-.954.4,1.9,1.9,0,0,0-.306,1.161v.63h2.358Zm10.278-1.71V19h-1.782l-.306-1.26h-.108a2.8,2.8,0,0,1-1.3,1.1,4.462,4.462,0,0,1-1.737.342,3.664,3.664,0,0,1-2.565-.846,3.52,3.52,0,0,1-.927-2.718V9.244h2.268v5.922q0,2.178,1.8,2.178a2.01,2.01,0,0,0,1.881-.855,4.864,4.864,0,0,0,.513-2.475V9.244ZM238.906,19h-2.268V5.32h2.268ZM250.57,6.148a7.933,7.933,0,0,1,3.789.72,2.624,2.624,0,0,1,1.287,2.5,3.066,3.066,0,0,1-.558,1.872,2.408,2.408,0,0,1-1.6.936v.09a3.912,3.912,0,0,1,1.278.459,2.364,2.364,0,0,1,.909.954,3.445,3.445,0,0,1,.333,1.629,3.265,3.265,0,0,1-1.233,2.718A5.314,5.314,0,0,1,251.4,19h-4.7V6.148Zm.306,5.238a3.012,3.012,0,0,0,1.881-.432,1.577,1.577,0,0,0,.513-1.278,1.341,1.341,0,0,0-.621-1.242,3.878,3.878,0,0,0-1.953-.378H249v3.33ZM249,13.24v3.834h2.088a2.765,2.765,0,0,0,1.953-.54,1.929,1.929,0,0,0,.549-1.44,1.723,1.723,0,0,0-.567-1.341,3.082,3.082,0,0,0-2.043-.513Zm18.09-4V19h-1.782l-.306-1.26H264.9a2.8,2.8,0,0,1-1.305,1.1,4.462,4.462,0,0,1-1.737.342,3.664,3.664,0,0,1-2.565-.846,3.52,3.52,0,0,1-.927-2.718V9.244h2.268v5.922q0,2.178,1.8,2.178a2.01,2.01,0,0,0,1.881-.855,4.863,4.863,0,0,0,.513-2.475V9.244Zm9.54,6.93a2.6,2.6,0,0,1-1.053,2.241,5.074,5.074,0,0,1-3.015.765,9.2,9.2,0,0,1-1.755-.144,6.565,6.565,0,0,1-1.413-.45V16.66a9.351,9.351,0,0,0,1.593.576,6.372,6.372,0,0,0,1.647.234,2.426,2.426,0,0,0,1.35-.288.9.9,0,0,0,.414-.774.856.856,0,0,0-.162-.513,2.036,2.036,0,0,0-.639-.5,14.6,14.6,0,0,0-1.413-.666,9.248,9.248,0,0,1-1.557-.747,2.778,2.778,0,0,1-.936-.909,2.584,2.584,0,0,1-.315-1.35,2.223,2.223,0,0,1,1.035-1.989,5,5,0,0,1,2.763-.675,7.742,7.742,0,0,1,1.7.18,8.62,8.62,0,0,1,1.611.54l-.72,1.674a13.921,13.921,0,0,0-1.332-.486,4.533,4.533,0,0,0-1.332-.2q-1.494,0-1.494.846a.765.765,0,0,0,.189.522,2.279,2.279,0,0,0,.666.459q.477.243,1.359.585a10.932,10.932,0,0,1,1.494.711,2.79,2.79,0,0,1,.972.909A2.514,2.514,0,0,1,276.634,16.174Zm3.312-10.692a1.5,1.5,0,0,1,.891.261,1.059,1.059,0,0,1,.369.927,1.085,1.085,0,0,1-.369.936,1.605,1.605,0,0,1-1.782,0,1.085,1.085,0,0,1-.369-.936,1.059,1.059,0,0,1,.369-.927A1.5,1.5,0,0,1,279.946,5.482Zm1.134,3.762V19h-2.268V9.244Zm8.118-.18a3.664,3.664,0,0,1,2.565.846,3.546,3.546,0,0,1,.927,2.736V19h-2.268V13.1q0-2.2-1.8-2.2a1.98,1.98,0,0,0-1.872.864,4.944,4.944,0,0,0-.5,2.466V19h-2.268V9.244h1.746l.324,1.278h.126a2.756,2.756,0,0,1,1.287-1.107A4.363,4.363,0,0,1,289.2,9.064Zm10.26,0a4.141,4.141,0,0,1,3.105,1.17,4.465,4.465,0,0,1,1.143,3.258v1.152h-6.444A2.973,2.973,0,0,0,298,16.7a2.572,2.572,0,0,0,1.944.729,6.985,6.985,0,0,0,1.692-.189,9.056,9.056,0,0,0,1.548-.549v1.818a6.642,6.642,0,0,1-1.494.5,9.178,9.178,0,0,1-1.854.162,5.618,5.618,0,0,1-2.529-.549,3.955,3.955,0,0,1-1.728-1.665,5.638,5.638,0,0,1-.621-2.772,5.351,5.351,0,0,1,1.242-3.816A4.276,4.276,0,0,1,299.458,9.064Zm0,1.674a1.975,1.975,0,0,0-1.485.585,2.723,2.723,0,0,0-.657,1.737h4.194A2.776,2.776,0,0,0,301,11.395,1.8,1.8,0,0,0,299.458,10.738Zm13.176,5.436a2.6,2.6,0,0,1-1.053,2.241,5.074,5.074,0,0,1-3.015.765,9.2,9.2,0,0,1-1.755-.144,6.565,6.565,0,0,1-1.413-.45V16.66a9.351,9.351,0,0,0,1.593.576,6.372,6.372,0,0,0,1.647.234,2.426,2.426,0,0,0,1.35-.288.9.9,0,0,0,.414-.774.856.856,0,0,0-.162-.513,2.036,2.036,0,0,0-.639-.5,14.6,14.6,0,0,0-1.413-.666,9.248,9.248,0,0,1-1.557-.747,2.778,2.778,0,0,1-.936-.909,2.584,2.584,0,0,1-.315-1.35,2.223,2.223,0,0,1,1.035-1.989,5,5,0,0,1,2.763-.675,7.742,7.742,0,0,1,1.7.18,8.62,8.62,0,0,1,1.611.54l-.72,1.674a13.921,13.921,0,0,0-1.332-.486,4.533,4.533,0,0,0-1.332-.2q-1.494,0-1.494.846a.765.765,0,0,0,.189.522,2.279,2.279,0,0,0,.666.459q.477.243,1.359.585a10.932,10.932,0,0,1,1.494.711,2.79,2.79,0,0,1,.972.909A2.514,2.514,0,0,1,312.634,16.174Zm8.82,0a2.6,2.6,0,0,1-1.053,2.241,5.074,5.074,0,0,1-3.015.765,9.2,9.2,0,0,1-1.755-.144,6.565,6.565,0,0,1-1.413-.45V16.66a9.351,9.351,0,0,0,1.593.576,6.372,6.372,0,0,0,1.647.234,2.426,2.426,0,0,0,1.35-.288.9.9,0,0,0,.414-.774.856.856,0,0,0-.162-.513,2.036,2.036,0,0,0-.639-.5,14.6,14.6,0,0,0-1.413-.666,9.248,9.248,0,0,1-1.557-.747,2.778,2.778,0,0,1-.936-.909,2.584,2.584,0,0,1-.315-1.35,2.223,2.223,0,0,1,1.035-1.989A5,5,0,0,1,318,9.064a7.742,7.742,0,0,1,1.7.18,8.62,8.62,0,0,1,1.611.54l-.72,1.674a13.921,13.921,0,0,0-1.332-.486,4.533,4.533,0,0,0-1.332-.2q-1.494,0-1.494.846a.765.765,0,0,0,.189.522,2.279,2.279,0,0,0,.666.459q.477.243,1.359.585a10.932,10.932,0,0,1,1.494.711,2.79,2.79,0,0,1,.972.909A2.514,2.514,0,0,1,321.454,16.174ZM332.884,19h-5.4V17.686l1.548-.576V8.056l-1.548-.594V6.148h5.4V7.462l-1.548.594V17.11l1.548.576Zm7.308-9.936a3.664,3.664,0,0,1,2.565.846,3.546,3.546,0,0,1,.927,2.736V19h-2.268V13.1q0-2.2-1.8-2.2a1.98,1.98,0,0,0-1.872.864,4.944,4.944,0,0,0-.5,2.466V19h-2.268V9.244h1.746l.324,1.278h.126a2.756,2.756,0,0,1,1.287-1.107A4.363,4.363,0,0,1,340.192,9.064Zm12.978,7.11a2.6,2.6,0,0,1-1.053,2.241,5.074,5.074,0,0,1-3.015.765,9.2,9.2,0,0,1-1.755-.144,6.565,6.565,0,0,1-1.413-.45V16.66a9.351,9.351,0,0,0,1.593.576,6.372,6.372,0,0,0,1.647.234,2.426,2.426,0,0,0,1.35-.288.9.9,0,0,0,.414-.774.856.856,0,0,0-.162-.513,2.036,2.036,0,0,0-.639-.5,14.6,14.6,0,0,0-1.413-.666,9.248,9.248,0,0,1-1.557-.747,2.778,2.778,0,0,1-.936-.909,2.584,2.584,0,0,1-.315-1.35,2.223,2.223,0,0,1,1.035-1.989,5,5,0,0,1,2.763-.675,7.742,7.742,0,0,1,1.7.18,8.62,8.62,0,0,1,1.611.54l-.72,1.674a13.921,13.921,0,0,0-1.332-.486,4.533,4.533,0,0,0-1.332-.2q-1.494,0-1.494.846a.765.765,0,0,0,.189.522A2.279,2.279,0,0,0,349,12.6q.477.243,1.359.585a10.932,10.932,0,0,1,1.494.711,2.79,2.79,0,0,1,.972.909A2.514,2.514,0,0,1,353.17,16.174Zm3.312-10.692a1.5,1.5,0,0,1,.891.261,1.059,1.059,0,0,1,.369.927,1.085,1.085,0,0,1-.369.936,1.605,1.605,0,0,1-1.782,0,1.085,1.085,0,0,1-.369-.936,1.059,1.059,0,0,1,.369-.927A1.5,1.5,0,0,1,356.482,5.482Zm1.134,3.762V19h-2.268V9.244Zm6.174-.18a3.379,3.379,0,0,1,2.9,1.44h.09l.216-1.26h1.89v9.828a4.082,4.082,0,0,1-1.179,3.168,5.052,5.052,0,0,1-3.519,1.08,12.764,12.764,0,0,1-1.926-.135,7.335,7.335,0,0,1-1.674-.459V20.854a9,9,0,0,0,3.744.756,2.225,2.225,0,0,0,1.7-.621,2.543,2.543,0,0,0,.585-1.809v-.252q0-.27.018-.63a5.262,5.262,0,0,1,.054-.576h-.072a3.093,3.093,0,0,1-1.233,1.107,3.749,3.749,0,0,1-1.647.351,3.3,3.3,0,0,1-2.79-1.332,6.026,6.026,0,0,1-1.008-3.708,6.068,6.068,0,0,1,1.017-3.726A3.348,3.348,0,0,1,363.79,9.064Zm.594,1.854q-2.124,0-2.124,3.258,0,3.2,2.16,3.2a2.2,2.2,0,0,0,1.755-.657,3.413,3.413,0,0,0,.567-2.223v-.342a4.212,4.212,0,0,0-.567-2.484A2.093,2.093,0,0,0,364.384,10.918Zm9.666-2.34q0,.576-.045,1.125t-.081.819h.144a2.913,2.913,0,0,1,1.224-1.1,3.844,3.844,0,0,1,1.674-.36,3.725,3.725,0,0,1,2.592.846,3.526,3.526,0,0,1,.936,2.736V19h-2.268V13.1q0-2.2-1.8-2.2a1.98,1.98,0,0,0-1.872.864,4.944,4.944,0,0,0-.5,2.466V19h-2.268V5.32h2.268Zm13.068,8.784a4.166,4.166,0,0,0,.819-.081,7.127,7.127,0,0,0,.747-.189v1.692a4.518,4.518,0,0,1-.936.279,6.047,6.047,0,0,1-1.206.117,3.968,3.968,0,0,1-1.512-.279,2.18,2.18,0,0,1-1.08-.963,3.83,3.83,0,0,1-.4-1.908V10.954H382.24v-.99l1.44-.792.72-2.07h1.422V9.244h2.772v1.71h-2.772v5.058a1.205,1.205,0,0,0,1.3,1.35Z" transform="translate(1 11.348)" fill="#fff"></path><g id="Group_52079" data-name="Group 52079" transform="translate(-3.38 3)"><g transform="matrix(1, 0, 0, 1, 4.38, -3)" filter="url(#Rectangle_28670)"><g id="Rectangle_28670-2" data-name="Rectangle 28670" transform="translate(11.62 58.9)" fill="#fff" stroke="#22b8b0" stroke-width="1"><rect width="256.76" height="140" rx="10" stroke="none"></rect><rect x="-0.5" y="-0.5" width="257.76" height="141" rx="10.5" fill="none"></rect></g></g><g transform="matrix(1, 0, 0, 1, 4.38, -3)" filter="url(#Rectangle_28671)"><g id="Rectangle_28671-2" data-name="Rectangle 28671" transform="translate(280.62 58.9)" fill="#fff" stroke="#004b8b" stroke-width="1"><rect width="256.76" height="140" rx="10" stroke="none"></rect><rect x="-0.5" y="-0.5" width="257.76" height="141" rx="10.5" fill="none"></rect></g></g><g transform="matrix(1, 0, 0, 1, 4.38, -3)" filter="url(#Rectangle_28672)"><g id="Rectangle_28672-2" data-name="Rectangle 28672" transform="translate(11.62 211.9)" fill="#fff" stroke="#6d1c75" stroke-width="1"><rect width="525.76" height="141" rx="10" stroke="none"></rect><rect x="-0.5" y="-0.5" width="526.76" height="142" rx="10.5" fill="none"></rect></g></g><path id="Path_127909" data-name="Path 127909" d="M4.13,5a4.6,4.6,0,0,1,2.835.714,2.579,2.579,0,0,1,.917,2.17,2.67,2.67,0,0,1-.287,1.3,2.571,2.571,0,0,1-.735.854,4.247,4.247,0,0,1-.938.525L8.722,15H6.986L4.578,10.954H2.842V15H1.33V5Zm-.1,1.288H2.842v3.4H4.1A2.64,2.64,0,0,0,5.8,9.253a1.6,1.6,0,0,0,.532-1.309,1.424,1.424,0,0,0-.56-1.274A3.151,3.151,0,0,0,4.032,6.292Zm8.96,1.022a3.039,3.039,0,0,1,2.338.917,3.522,3.522,0,0,1,.854,2.5v.812H11.116a2.591,2.591,0,0,0,.609,1.778,2.134,2.134,0,0,0,1.631.616,5.7,5.7,0,0,0,1.3-.133,6.667,6.667,0,0,0,1.169-.4v1.232a6.116,6.116,0,0,1-1.148.378,6.483,6.483,0,0,1-1.372.126,4.139,4.139,0,0,1-1.939-.434,3.083,3.083,0,0,1-1.3-1.3A4.386,4.386,0,0,1,9.59,11.29a4.919,4.919,0,0,1,.427-2.156,3.15,3.15,0,0,1,1.19-1.351A3.34,3.34,0,0,1,12.992,7.314Zm0,1.148a1.669,1.669,0,0,0-1.281.518,2.4,2.4,0,0,0-.567,1.47H14.7a2.4,2.4,0,0,0-.427-1.435A1.494,1.494,0,0,0,12.992,8.462Zm7.63,6.678a2.735,2.735,0,0,1-2.191-.98,4.4,4.4,0,0,1-.833-2.912,4.454,4.454,0,0,1,.84-2.94,2.754,2.754,0,0,1,2.212-.994,2.727,2.727,0,0,1,1.4.322,2.88,2.88,0,0,1,.882.784h.084q-.028-.182-.07-.56a6.159,6.159,0,0,1-.042-.672V4.36h1.484V15H23.226l-.252-1.008H22.9a2.662,2.662,0,0,1-.868.819A2.71,2.71,0,0,1,20.622,15.14Zm.35-1.218a1.788,1.788,0,0,0,1.54-.609,3.074,3.074,0,0,0,.448-1.827v-.224a3.943,3.943,0,0,0-.427-2.023,1.687,1.687,0,0,0-1.575-.707,1.517,1.517,0,0,0-1.372.735,3.755,3.755,0,0,0-.462,2.009,3.5,3.5,0,0,0,.462,1.96A1.56,1.56,0,0,0,20.972,13.922ZM33.208,7.454V15h-1.19l-.21-.994h-.07a2.138,2.138,0,0,1-1.008.861,3.444,3.444,0,0,1-1.358.273,2.856,2.856,0,0,1-2.03-.658,2.745,2.745,0,0,1-.7-2.086V7.454h1.5v4.718q0,1.75,1.526,1.75a1.777,1.777,0,0,0,1.61-.686,3.583,3.583,0,0,0,.448-1.96V7.454ZM38.57,15.14a3.449,3.449,0,0,1-2.52-.931,3.952,3.952,0,0,1-.952-2.933,4.823,4.823,0,0,1,.462-2.268,2.938,2.938,0,0,1,1.274-1.281,4.019,4.019,0,0,1,1.848-.413,5.262,5.262,0,0,1,2.1.434l-.448,1.2a6.967,6.967,0,0,0-.833-.266,3.389,3.389,0,0,0-.833-.112q-2.044,0-2.044,2.688a3.231,3.231,0,0,0,.5,1.96,1.739,1.739,0,0,0,1.484.672,4.008,4.008,0,0,0,1.113-.14,4.327,4.327,0,0,0,.889-.364v1.288a3.167,3.167,0,0,1-.882.35A5.156,5.156,0,0,1,38.57,15.14Zm6.79-7.826a3.039,3.039,0,0,1,2.338.917,3.522,3.522,0,0,1,.854,2.5v.812H43.484a2.591,2.591,0,0,0,.609,1.778,2.134,2.134,0,0,0,1.631.616,5.7,5.7,0,0,0,1.3-.133,6.667,6.667,0,0,0,1.169-.4v1.232a6.116,6.116,0,0,1-1.148.378,6.483,6.483,0,0,1-1.372.126,4.139,4.139,0,0,1-1.939-.434,3.083,3.083,0,0,1-1.3-1.3,4.386,4.386,0,0,1-.469-2.121,4.919,4.919,0,0,1,.427-2.156,3.15,3.15,0,0,1,1.19-1.351A3.34,3.34,0,0,1,45.36,7.314Zm0,1.148a1.669,1.669,0,0,0-1.281.518,2.4,2.4,0,0,0-.567,1.47h3.556a2.4,2.4,0,0,0-.427-1.435A1.494,1.494,0,0,0,45.36,8.462Zm7.63,6.678a2.735,2.735,0,0,1-2.191-.98,4.4,4.4,0,0,1-.833-2.912,4.454,4.454,0,0,1,.84-2.94,2.754,2.754,0,0,1,2.212-.994,2.727,2.727,0,0,1,1.4.322,2.88,2.88,0,0,1,.882.784h.084q-.028-.182-.07-.56a6.159,6.159,0,0,1-.042-.672V4.36h1.484V15H55.594l-.252-1.008h-.07a2.662,2.662,0,0,1-.868.819A2.71,2.71,0,0,1,52.99,15.14Zm.35-1.218a1.788,1.788,0,0,0,1.54-.609,3.074,3.074,0,0,0,.448-1.827v-.224A3.943,3.943,0,0,0,54.9,9.239a1.687,1.687,0,0,0-1.575-.707,1.517,1.517,0,0,0-1.372.735,3.755,3.755,0,0,0-.462,2.009,3.5,3.5,0,0,0,.462,1.96A1.56,1.56,0,0,0,53.34,13.922Zm14.392-1.05a1.945,1.945,0,0,1-.812,1.687,3.817,3.817,0,0,1-2.254.581,6.746,6.746,0,0,1-1.365-.119,4.716,4.716,0,0,1-1.043-.343v-1.3a7.1,7.1,0,0,0,1.155.427,4.726,4.726,0,0,0,1.3.189,2.124,2.124,0,0,0,1.211-.266.835.835,0,0,0,.371-.714.783.783,0,0,0-.14-.455,1.574,1.574,0,0,0-.525-.42,8.611,8.611,0,0,0-1.127-.5,9.87,9.87,0,0,1-1.225-.581,2.239,2.239,0,0,1-.763-.686,1.821,1.821,0,0,1-.266-1.029,1.7,1.7,0,0,1,.791-1.505,3.728,3.728,0,0,1,2.093-.525,5.768,5.768,0,0,1,1.295.14,6.634,6.634,0,0,1,1.183.392l-.49,1.134a8.327,8.327,0,0,0-1.008-.357,3.828,3.828,0,0,0-1.05-.147,2.013,2.013,0,0,0-1.022.21.653.653,0,0,0-.35.588.687.687,0,0,0,.168.462,1.791,1.791,0,0,0,.567.392q.4.2,1.1.476a8.9,8.9,0,0,1,1.2.546,2.085,2.085,0,0,1,.756.686A1.9,1.9,0,0,1,67.732,12.872Zm.616-5.418h1.6l1.568,4.284q.182.49.315.945a7.332,7.332,0,0,1,.2.889h.056q.07-.364.217-.854t.329-.994l1.484-4.27h1.6l-3.234,8.568a4.321,4.321,0,0,1-1.085,1.715,2.517,2.517,0,0,1-1.771.623,4.452,4.452,0,0,1-.6-.035q-.252-.035-.434-.077V17.072q.14.028.364.056a3.723,3.723,0,0,0,.462.028,1.445,1.445,0,0,0,1.036-.371,2.526,2.526,0,0,0,.616-.973L71.372,15Zm13.538,5.418a1.945,1.945,0,0,1-.812,1.687,3.817,3.817,0,0,1-2.254.581,6.746,6.746,0,0,1-1.365-.119,4.716,4.716,0,0,1-1.043-.343v-1.3a7.1,7.1,0,0,0,1.155.427,4.726,4.726,0,0,0,1.295.189,2.124,2.124,0,0,0,1.211-.266.835.835,0,0,0,.371-.714.783.783,0,0,0-.14-.455,1.574,1.574,0,0,0-.525-.42,8.611,8.611,0,0,0-1.127-.5,9.87,9.87,0,0,1-1.225-.581,2.239,2.239,0,0,1-.763-.686A1.821,1.821,0,0,1,76.4,9.344a1.7,1.7,0,0,1,.791-1.505,3.728,3.728,0,0,1,2.093-.525,5.768,5.768,0,0,1,1.295.14,6.634,6.634,0,0,1,1.183.392L81.27,8.98a8.327,8.327,0,0,0-1.008-.357,3.828,3.828,0,0,0-1.05-.147,2.013,2.013,0,0,0-1.022.21.653.653,0,0,0-.35.588.687.687,0,0,0,.168.462,1.791,1.791,0,0,0,.567.392q.4.2,1.1.476a8.9,8.9,0,0,1,1.2.546,2.085,2.085,0,0,1,.756.686A1.9,1.9,0,0,1,81.886,12.872Zm4.48,1.064a3.829,3.829,0,0,0,.6-.049,2.762,2.762,0,0,0,.532-.133v1.12a3.061,3.061,0,0,1-.651.189,4.239,4.239,0,0,1-.805.077,2.991,2.991,0,0,1-1.134-.21,1.65,1.65,0,0,1-.819-.728,2.884,2.884,0,0,1-.3-1.442V8.588H82.74V7.916l1.106-.56.518-1.6h.91V7.454H87.43V8.588H85.274v4.144a1.222,1.222,0,0,0,.3.91A1.084,1.084,0,0,0,86.366,13.936ZM91.98,7.314a3.039,3.039,0,0,1,2.338.917,3.522,3.522,0,0,1,.854,2.5v.812H90.1a2.591,2.591,0,0,0,.609,1.778,2.134,2.134,0,0,0,1.631.616,5.7,5.7,0,0,0,1.295-.133,6.667,6.667,0,0,0,1.169-.4v1.232a6.116,6.116,0,0,1-1.148.378,6.483,6.483,0,0,1-1.372.126,4.139,4.139,0,0,1-1.939-.434,3.083,3.083,0,0,1-1.3-1.3,4.386,4.386,0,0,1-.469-2.121A4.919,4.919,0,0,1,89,9.134a3.15,3.15,0,0,1,1.19-1.351A3.34,3.34,0,0,1,91.98,7.314Zm0,1.148A1.669,1.669,0,0,0,90.7,8.98a2.4,2.4,0,0,0-.567,1.47h3.556a2.4,2.4,0,0,0-.427-1.435A1.494,1.494,0,0,0,91.98,8.462Zm13.5-1.148a2.569,2.569,0,0,1,1.918.658,2.938,2.938,0,0,1,.644,2.114V15h-1.484V10.282q0-1.75-1.414-1.75a1.632,1.632,0,0,0-1.442.623,3.1,3.1,0,0,0-.434,1.785V15h-1.47V10.282q0-1.75-1.428-1.75a1.547,1.547,0,0,0-1.463.686,3.975,3.975,0,0,0-.4,1.974V15H97.02V7.454H98.2l.21,1.008h.084a2.059,2.059,0,0,1,.938-.868,2.985,2.985,0,0,1,1.274-.28A2.249,2.249,0,0,1,103,8.532h.112a2.194,2.194,0,0,1,1.008-.924A3.232,3.232,0,0,1,105.476,7.314Zm-95.858,20a2.569,2.569,0,0,1,1.918.658,2.938,2.938,0,0,1,.644,2.114V35H10.7V30.282q0-1.75-1.414-1.75a1.632,1.632,0,0,0-1.442.623,3.1,3.1,0,0,0-.434,1.785V35H5.936V30.282q0-1.75-1.428-1.75a1.547,1.547,0,0,0-1.463.686,3.975,3.975,0,0,0-.4,1.974V35H1.162V27.454H2.338l.21,1.008h.084a2.059,2.059,0,0,1,.938-.868,2.985,2.985,0,0,1,1.274-.28,2.249,2.249,0,0,1,2.3,1.218h.112a2.194,2.194,0,0,1,1.008-.924A3.232,3.232,0,0,1,9.618,27.314ZM21.1,31.22a4.056,4.056,0,0,1-.966,2.9,3.413,3.413,0,0,1-2.6,1.022,3.528,3.528,0,0,1-1.813-.462,3.231,3.231,0,0,1-1.246-1.337,4.55,4.55,0,0,1-.455-2.121,4.067,4.067,0,0,1,.952-2.891,3.4,3.4,0,0,1,2.6-1.015,3.6,3.6,0,0,1,1.827.455,3.194,3.194,0,0,1,1.246,1.323A4.54,4.54,0,0,1,21.1,31.22Zm-5.558,0a3.517,3.517,0,0,0,.483,1.988,1.718,1.718,0,0,0,1.533.714,1.718,1.718,0,0,0,1.533-.714,3.517,3.517,0,0,0,.483-1.988,3.4,3.4,0,0,0-.49-1.981,1.756,1.756,0,0,0-1.54-.693,1.719,1.719,0,0,0-1.526.693A3.48,3.48,0,0,0,15.54,31.22ZM26.8,27.314a2.835,2.835,0,0,1,2.016.658,2.787,2.787,0,0,1,.7,2.114V35h-1.47V30.3q0-1.764-1.554-1.764a1.74,1.74,0,0,0-1.6.686,3.708,3.708,0,0,0-.434,1.974V35H22.974V27.454H24.15l.21,1.008h.084a2.184,2.184,0,0,1,1-.868A3.32,3.32,0,0,1,26.8,27.314Zm5.754-2.73a.93.93,0,0,1,.588.2.976.976,0,0,1,0,1.309.91.91,0,0,1-.588.2.923.923,0,0,1-.609-.2,1,1,0,0,1,0-1.309A.944.944,0,0,1,32.55,24.584Zm.728,2.87V35H31.794V27.454Zm5.04,6.482a3.829,3.829,0,0,0,.6-.049,2.762,2.762,0,0,0,.532-.133v1.12a3.061,3.061,0,0,1-.651.189A4.239,4.239,0,0,1,38,35.14a2.991,2.991,0,0,1-1.134-.21,1.65,1.65,0,0,1-.819-.728,2.884,2.884,0,0,1-.3-1.442V28.588h-1.05v-.672l1.106-.56.518-1.6h.91v1.694h2.156v1.134H37.226v4.144a1.222,1.222,0,0,0,.3.91A1.084,1.084,0,0,0,38.318,33.936Zm9.3-2.716a4.056,4.056,0,0,1-.966,2.9,3.413,3.413,0,0,1-2.6,1.022,3.528,3.528,0,0,1-1.813-.462,3.231,3.231,0,0,1-1.246-1.337,4.55,4.55,0,0,1-.455-2.121,4.067,4.067,0,0,1,.952-2.891,3.4,3.4,0,0,1,2.6-1.015,3.6,3.6,0,0,1,1.827.455,3.194,3.194,0,0,1,1.246,1.323A4.54,4.54,0,0,1,47.614,31.22Zm-5.558,0a3.517,3.517,0,0,0,.483,1.988,2,2,0,0,0,3.066,0,3.517,3.517,0,0,0,.483-1.988,3.4,3.4,0,0,0-.49-1.981,1.756,1.756,0,0,0-1.54-.693,1.719,1.719,0,0,0-1.526.693A3.48,3.48,0,0,0,42.056,31.22Zm11.158-3.906q.2,0,.427.021t.4.049l-.154,1.386a2.9,2.9,0,0,0-.756-.1,2.123,2.123,0,0,0-1.855,1.085,2.508,2.508,0,0,0-.3,1.267V35H49.49V27.454h1.176l.2,1.344h.056a3.762,3.762,0,0,1,.938-1.043A2.164,2.164,0,0,1,53.214,27.314Zm2.982-2.73a.93.93,0,0,1,.588.2.976.976,0,0,1,0,1.309.91.91,0,0,1-.588.2.923.923,0,0,1-.609-.2,1,1,0,0,1,0-1.309A.944.944,0,0,1,56.2,24.584Zm.728,2.87V35H55.44V27.454Zm6.146-.14a2.835,2.835,0,0,1,2.016.658,2.787,2.787,0,0,1,.7,2.114V35h-1.47V30.3q0-1.764-1.554-1.764a1.74,1.74,0,0,0-1.6.686,3.708,3.708,0,0,0-.434,1.974V35H59.248V27.454h1.176l.21,1.008h.084a2.184,2.184,0,0,1,1-.868A3.32,3.32,0,0,1,63.07,27.314Zm7.6,0a2.672,2.672,0,0,1,2.31,1.134h.07l.168-.994h1.2V35.1a3.223,3.223,0,0,1-.861,2.436,3.667,3.667,0,0,1-2.625.826,9.285,9.285,0,0,1-1.5-.112,5.671,5.671,0,0,1-1.253-.35V36.6a6.411,6.411,0,0,0,2.842.588,1.887,1.887,0,0,0,1.428-.525,2.046,2.046,0,0,0,.5-1.477V34.93q0-.182.014-.476T73,34.006H72.94a2.3,2.3,0,0,1-.952.861,3.029,3.029,0,0,1-1.316.273,2.676,2.676,0,0,1-2.233-1.029,4.541,4.541,0,0,1-.805-2.863,4.64,4.64,0,0,1,.805-2.877A2.649,2.649,0,0,1,70.672,27.314Zm.308,1.232a1.528,1.528,0,0,0-1.351.7,3.617,3.617,0,0,0-.469,2.016,3.545,3.545,0,0,0,.469,2,1.563,1.563,0,0,0,1.379.686,1.889,1.889,0,0,0,1.519-.567,2.851,2.851,0,0,0,.483-1.855v-.28a3.416,3.416,0,0,0-.49-2.072A1.829,1.829,0,0,0,70.98,28.546Zm12.334-1.232a3.128,3.128,0,0,1,2.121.623,2.473,2.473,0,0,1,.707,1.953V35h-1.05L84.8,33.95h-.056a3.372,3.372,0,0,1-1.029.9,3.206,3.206,0,0,1-1.491.287,2.578,2.578,0,0,1-1.694-.553,2.111,2.111,0,0,1-.672-1.729,2,2,0,0,1,.868-1.75A5.024,5.024,0,0,1,83.4,30.45l1.288-.042v-.42a1.288,1.288,0,0,0-1.442-1.512,3.651,3.651,0,0,0-1.106.168,7.515,7.515,0,0,0-1.022.406l-.476-1.078a6.041,6.041,0,0,1,1.225-.469A5.483,5.483,0,0,1,83.314,27.314Zm.35,4.088a3.377,3.377,0,0,0-1.785.427,1.226,1.226,0,0,0-.5,1.043,1,1,0,0,0,.35.854,1.463,1.463,0,0,0,.91.266,2.17,2.17,0,0,0,1.449-.49,1.815,1.815,0,0,0,.581-1.47v-.658Zm7.8,3.738a3.449,3.449,0,0,1-2.52-.931,3.952,3.952,0,0,1-.952-2.933,4.823,4.823,0,0,1,.462-2.268,2.938,2.938,0,0,1,1.274-1.281,4.019,4.019,0,0,1,1.848-.413,5.262,5.262,0,0,1,2.1.434l-.448,1.2a6.966,6.966,0,0,0-.833-.266,3.389,3.389,0,0,0-.833-.112q-2.044,0-2.044,2.688a3.231,3.231,0,0,0,.5,1.96,1.739,1.739,0,0,0,1.484.672,4.008,4.008,0,0,0,1.113-.14,4.327,4.327,0,0,0,.889-.364v1.288a3.167,3.167,0,0,1-.882.35A5.156,5.156,0,0,1,91.462,35.14ZM98,33.936a3.829,3.829,0,0,0,.6-.049,2.762,2.762,0,0,0,.532-.133v1.12a3.061,3.061,0,0,1-.651.189,4.239,4.239,0,0,1-.805.077,2.991,2.991,0,0,1-1.134-.21,1.65,1.65,0,0,1-.819-.728,2.884,2.884,0,0,1-.3-1.442V28.588h-1.05v-.672l1.106-.56L96,25.76h.91v1.694h2.156v1.134H96.908v4.144a1.222,1.222,0,0,0,.3.91A1.084,1.084,0,0,0,98,33.936Zm3.4-9.352a.93.93,0,0,1,.588.2.976.976,0,0,1,0,1.309.91.91,0,0,1-.588.2.923.923,0,0,1-.609-.2,1,1,0,0,1,0-1.309A.944.944,0,0,1,101.4,24.584Zm.728,2.87V35h-1.484V27.454ZM106.148,35l-2.856-7.546h1.568l1.568,4.41q.154.434.308.973a5.962,5.962,0,0,1,.2.889h.056a6.889,6.889,0,0,1,.224-.9q.168-.546.308-.966l1.568-4.41h1.568L107.786,35Zm6.426-10.416a.93.93,0,0,1,.588.2.976.976,0,0,1,0,1.309.91.91,0,0,1-.588.2.923.923,0,0,1-.609-.2,1,1,0,0,1,0-1.309A.944.944,0,0,1,112.574,24.584Zm.728,2.87V35h-1.484V27.454Zm5.04,6.482a3.829,3.829,0,0,0,.6-.049,2.762,2.762,0,0,0,.532-.133v1.12a3.061,3.061,0,0,1-.651.189,4.239,4.239,0,0,1-.805.077,2.991,2.991,0,0,1-1.134-.21,1.65,1.65,0,0,1-.819-.728,2.884,2.884,0,0,1-.3-1.442V28.588h-1.05v-.672l1.106-.56.518-1.6h.91v1.694h2.156v1.134H117.25v4.144a1.222,1.222,0,0,0,.3.91A1.084,1.084,0,0,0,118.342,33.936Zm3.4-9.352a.93.93,0,0,1,.588.2.976.976,0,0,1,0,1.309.91.91,0,0,1-.588.2.923.923,0,0,1-.609-.2,1,1,0,0,1,0-1.309A.944.944,0,0,1,121.744,24.584Zm.728,2.87V35h-1.484V27.454Zm5.292-.14a3.039,3.039,0,0,1,2.338.917,3.522,3.522,0,0,1,.854,2.5v.812h-5.068a2.591,2.591,0,0,0,.609,1.778,2.134,2.134,0,0,0,1.631.616,5.7,5.7,0,0,0,1.295-.133,6.667,6.667,0,0,0,1.169-.4v1.232a6.116,6.116,0,0,1-1.148.378,6.483,6.483,0,0,1-1.372.126,4.139,4.139,0,0,1-1.939-.434,3.083,3.083,0,0,1-1.3-1.3,4.386,4.386,0,0,1-.469-2.121,4.919,4.919,0,0,1,.427-2.156,3.15,3.15,0,0,1,1.19-1.351A3.34,3.34,0,0,1,127.764,27.314Zm0,1.148a1.669,1.669,0,0,0-1.281.518,2.4,2.4,0,0,0-.567,1.47h3.556a2.4,2.4,0,0,0-.427-1.435A1.494,1.494,0,0,0,127.764,28.462Zm10.052,4.41A1.945,1.945,0,0,1,137,34.559a3.817,3.817,0,0,1-2.254.581,6.746,6.746,0,0,1-1.365-.119,4.716,4.716,0,0,1-1.043-.343v-1.3a7.1,7.1,0,0,0,1.155.427,4.726,4.726,0,0,0,1.295.189A2.124,2.124,0,0,0,136,33.726a.835.835,0,0,0,.371-.714.783.783,0,0,0-.14-.455,1.574,1.574,0,0,0-.525-.42,8.611,8.611,0,0,0-1.127-.5,9.87,9.87,0,0,1-1.225-.581,2.239,2.239,0,0,1-.763-.686,1.821,1.821,0,0,1-.266-1.029,1.7,1.7,0,0,1,.791-1.5,3.728,3.728,0,0,1,2.093-.525,5.768,5.768,0,0,1,1.295.14,6.634,6.634,0,0,1,1.183.392l-.49,1.134a8.328,8.328,0,0,0-1.008-.357,3.828,3.828,0,0,0-1.05-.147,2.013,2.013,0,0,0-1.022.21.653.653,0,0,0-.35.588.687.687,0,0,0,.168.462,1.791,1.791,0,0,0,.567.392q.4.2,1.1.476a8.9,8.9,0,0,1,1.2.546,2.085,2.085,0,0,1,.756.686A1.9,1.9,0,0,1,137.816,32.872Z" transform="translate(36.451 134.9)" fill="#394a56"></path><path id="Path_127910" data-name="Path 127910" d="M12.012-30.366a13.33,13.33,0,0,1,4.725.8,7.464,7.464,0,0,1,3.36,2.394,6.311,6.311,0,0,1,1.239,3.99,6.289,6.289,0,0,1-1.6,4.452,13.79,13.79,0,0,1-3.906,2.9,19.258,19.258,0,0,1,3.192,1.953,9.294,9.294,0,0,1,2.373,2.6,6.638,6.638,0,0,1,.9,3.507A7.294,7.294,0,0,1,21-3.423,8.494,8.494,0,0,1,17.409-.588,13.194,13.194,0,0,1,12.054.42q-5,0-7.686-2.142A7.109,7.109,0,0,1,1.68-7.6,7.511,7.511,0,0,1,2.5-11.193a8.523,8.523,0,0,1,2.163-2.625A14.456,14.456,0,0,1,7.6-15.666a13.652,13.652,0,0,1-3.507-3.045,6.932,6.932,0,0,1-1.449-4.515,6.106,6.106,0,0,1,1.281-3.948,7.753,7.753,0,0,1,3.4-2.394A13.2,13.2,0,0,1,12.012-30.366Zm-.042,3.99a4.838,4.838,0,0,0-3.045.924,3.1,3.1,0,0,0-1.2,2.6,3.6,3.6,0,0,0,1.281,2.919,14.317,14.317,0,0,0,3.045,1.911,11.319,11.319,0,0,0,2.961-1.848,3.771,3.771,0,0,0,1.239-2.982,3.1,3.1,0,0,0-1.2-2.6A4.908,4.908,0,0,0,11.97-26.376ZM6.72-7.854a3.955,3.955,0,0,0,1.3,3.045,5.667,5.667,0,0,0,3.948,1.2,5.833,5.833,0,0,0,3.948-1.176,3.881,3.881,0,0,0,1.344-3.066,3.857,3.857,0,0,0-1.533-3.129,17.974,17.974,0,0,0-3.549-2.205l-.588-.294a11.3,11.3,0,0,0-3.57,2.352A4.532,4.532,0,0,0,6.72-7.854Zm39.564-7.14A29.715,29.715,0,0,1,45.276-6.72,10.342,10.342,0,0,1,42-1.428,9.215,9.215,0,0,1,35.994.42q-5.292,0-7.77-4.095T25.746-14.994a29.893,29.893,0,0,1,1.008-8.316A10.408,10.408,0,0,1,30.009-28.6a9.129,9.129,0,0,1,5.985-1.848,8.5,8.5,0,0,1,7.77,4.074Q46.284-22.3,46.284-14.994Zm-15.2,0A24.238,24.238,0,0,0,32.151-6.72a3.865,3.865,0,0,0,3.843,2.772A3.909,3.909,0,0,0,39.837-6.7a23.363,23.363,0,0,0,1.113-8.295,23.548,23.548,0,0,0-1.113-8.316,3.911,3.911,0,0,0-3.843-2.772,3.865,3.865,0,0,0-3.843,2.772A24.4,24.4,0,0,0,31.08-14.994ZM56.322-30.408a5.9,5.9,0,0,1,5.145,2.457,11.8,11.8,0,0,1,1.743,6.909,12.478,12.478,0,0,1-1.659,6.951,5.825,5.825,0,0,1-5.229,2.5,5.639,5.639,0,0,1-4.977-2.5,12.237,12.237,0,0,1-1.7-6.951,12.645,12.645,0,0,1,1.6-6.909A5.615,5.615,0,0,1,56.322-30.408Zm20.538.42L60.228,0H55.944L72.576-29.988Zm-20.5,3.234q-2.352,0-2.352,5.754t2.352,5.754Q58.8-15.246,58.8-21T56.364-26.754Zm19.992,8.316a5.856,5.856,0,0,1,5.082,2.478A11.714,11.714,0,0,1,83.2-9.072a12.478,12.478,0,0,1-1.659,6.951,5.782,5.782,0,0,1-5.187,2.5,5.68,5.68,0,0,1-5.019-2.5,12.237,12.237,0,0,1-1.7-6.951,12.533,12.533,0,0,1,1.617-6.888A5.651,5.651,0,0,1,76.356-18.438Zm0,3.7Q74-14.742,74-9.03q0,5.8,2.352,5.8,2.478,0,2.478-5.8Q78.834-14.742,76.356-14.742Z" transform="translate(36.451 122.9)" fill="#22b8b0"></path><path id="Path_127911" data-name="Path 127911" d="M4.13,5a4.6,4.6,0,0,1,2.835.714,2.579,2.579,0,0,1,.917,2.17,2.67,2.67,0,0,1-.287,1.3,2.571,2.571,0,0,1-.735.854,4.247,4.247,0,0,1-.938.525L8.722,15H6.986L4.578,10.954H2.842V15H1.33V5Zm-.1,1.288H2.842v3.4H4.1A2.64,2.64,0,0,0,5.8,9.253a1.6,1.6,0,0,0,.532-1.309,1.424,1.424,0,0,0-.56-1.274A3.151,3.151,0,0,0,4.032,6.292Zm8.96,1.022a3.039,3.039,0,0,1,2.338.917,3.522,3.522,0,0,1,.854,2.5v.812H11.116a2.591,2.591,0,0,0,.609,1.778,2.134,2.134,0,0,0,1.631.616,5.7,5.7,0,0,0,1.3-.133,6.667,6.667,0,0,0,1.169-.4v1.232a6.116,6.116,0,0,1-1.148.378,6.483,6.483,0,0,1-1.372.126,4.139,4.139,0,0,1-1.939-.434,3.083,3.083,0,0,1-1.3-1.3A4.386,4.386,0,0,1,9.59,11.29a4.919,4.919,0,0,1,.427-2.156,3.15,3.15,0,0,1,1.19-1.351A3.34,3.34,0,0,1,12.992,7.314Zm0,1.148a1.669,1.669,0,0,0-1.281.518,2.4,2.4,0,0,0-.567,1.47H14.7a2.4,2.4,0,0,0-.427-1.435A1.494,1.494,0,0,0,12.992,8.462Zm7.63,6.678a2.735,2.735,0,0,1-2.191-.98,4.4,4.4,0,0,1-.833-2.912,4.454,4.454,0,0,1,.84-2.94,2.754,2.754,0,0,1,2.212-.994,2.727,2.727,0,0,1,1.4.322,2.88,2.88,0,0,1,.882.784h.084q-.028-.182-.07-.56a6.159,6.159,0,0,1-.042-.672V4.36h1.484V15H23.226l-.252-1.008H22.9a2.662,2.662,0,0,1-.868.819A2.71,2.71,0,0,1,20.622,15.14Zm.35-1.218a1.788,1.788,0,0,0,1.54-.609,3.074,3.074,0,0,0,.448-1.827v-.224a3.943,3.943,0,0,0-.427-2.023,1.687,1.687,0,0,0-1.575-.707,1.517,1.517,0,0,0-1.372.735,3.755,3.755,0,0,0-.462,2.009,3.5,3.5,0,0,0,.462,1.96A1.56,1.56,0,0,0,20.972,13.922ZM33.208,7.454V15h-1.19l-.21-.994h-.07a2.138,2.138,0,0,1-1.008.861,3.444,3.444,0,0,1-1.358.273,2.856,2.856,0,0,1-2.03-.658,2.745,2.745,0,0,1-.7-2.086V7.454h1.5v4.718q0,1.75,1.526,1.75a1.777,1.777,0,0,0,1.61-.686,3.583,3.583,0,0,0,.448-1.96V7.454ZM38.57,15.14a3.449,3.449,0,0,1-2.52-.931,3.952,3.952,0,0,1-.952-2.933,4.823,4.823,0,0,1,.462-2.268,2.938,2.938,0,0,1,1.274-1.281,4.019,4.019,0,0,1,1.848-.413,5.262,5.262,0,0,1,2.1.434l-.448,1.2a6.967,6.967,0,0,0-.833-.266,3.389,3.389,0,0,0-.833-.112q-2.044,0-2.044,2.688a3.231,3.231,0,0,0,.5,1.96,1.739,1.739,0,0,0,1.484.672,4.008,4.008,0,0,0,1.113-.14,4.327,4.327,0,0,0,.889-.364v1.288a3.167,3.167,0,0,1-.882.35A5.156,5.156,0,0,1,38.57,15.14Zm6.79-7.826a3.039,3.039,0,0,1,2.338.917,3.522,3.522,0,0,1,.854,2.5v.812H43.484a2.591,2.591,0,0,0,.609,1.778,2.134,2.134,0,0,0,1.631.616,5.7,5.7,0,0,0,1.3-.133,6.667,6.667,0,0,0,1.169-.4v1.232a6.116,6.116,0,0,1-1.148.378,6.483,6.483,0,0,1-1.372.126,4.139,4.139,0,0,1-1.939-.434,3.083,3.083,0,0,1-1.3-1.3,4.386,4.386,0,0,1-.469-2.121,4.919,4.919,0,0,1,.427-2.156,3.15,3.15,0,0,1,1.19-1.351A3.34,3.34,0,0,1,45.36,7.314Zm0,1.148a1.669,1.669,0,0,0-1.281.518,2.4,2.4,0,0,0-.567,1.47h3.556a2.4,2.4,0,0,0-.427-1.435A1.494,1.494,0,0,0,45.36,8.462Zm7.63,6.678a2.735,2.735,0,0,1-2.191-.98,4.4,4.4,0,0,1-.833-2.912,4.454,4.454,0,0,1,.84-2.94,2.754,2.754,0,0,1,2.212-.994,2.727,2.727,0,0,1,1.4.322,2.88,2.88,0,0,1,.882.784h.084q-.028-.182-.07-.56a6.159,6.159,0,0,1-.042-.672V4.36h1.484V15H55.594l-.252-1.008h-.07a2.662,2.662,0,0,1-.868.819A2.71,2.71,0,0,1,52.99,15.14Zm.35-1.218a1.788,1.788,0,0,0,1.54-.609,3.074,3.074,0,0,0,.448-1.827v-.224A3.943,3.943,0,0,0,54.9,9.239a1.687,1.687,0,0,0-1.575-.707,1.517,1.517,0,0,0-1.372.735,3.755,3.755,0,0,0-.462,2.009,3.5,3.5,0,0,0,.462,1.96A1.56,1.56,0,0,0,53.34,13.922Zm10.864-7q0,.462-.028.882t-.042.644h.07a2.5,2.5,0,0,1,.861-.8,2.8,2.8,0,0,1,1.421-.322,2.735,2.735,0,0,1,2.191.98,4.4,4.4,0,0,1,.833,2.912,4.425,4.425,0,0,1-.84,2.933,2.748,2.748,0,0,1-2.2.987,2.8,2.8,0,0,1-1.421-.315,2.665,2.665,0,0,1-.847-.749h-.112l-.28.924H62.72V4.36H64.2Zm1.932,1.61a1.676,1.676,0,0,0-1.512.637,3.6,3.6,0,0,0-.42,1.953v.112a3.937,3.937,0,0,0,.413,1.995,1.649,1.649,0,0,0,1.547.693,1.524,1.524,0,0,0,1.358-.7,3.661,3.661,0,0,0,.462-2.016Q67.984,8.532,66.136,8.532Zm8.19-1.218a3.128,3.128,0,0,1,2.121.623,2.473,2.473,0,0,1,.707,1.953V15H76.1l-.294-1.05h-.056a3.372,3.372,0,0,1-1.029.9,3.206,3.206,0,0,1-1.491.287,2.578,2.578,0,0,1-1.694-.553,2.111,2.111,0,0,1-.672-1.729,2,2,0,0,1,.868-1.75,5.024,5.024,0,0,1,2.674-.658l1.288-.042v-.42a1.522,1.522,0,0,0-.378-1.169,1.527,1.527,0,0,0-1.064-.343,3.651,3.651,0,0,0-1.106.168,7.516,7.516,0,0,0-1.022.406l-.476-1.078A6.041,6.041,0,0,1,72.877,7.5,5.483,5.483,0,0,1,74.326,7.314Zm.35,4.088a3.377,3.377,0,0,0-1.785.427,1.226,1.226,0,0,0-.5,1.043,1,1,0,0,0,.35.854,1.463,1.463,0,0,0,.91.266A2.17,2.17,0,0,0,75.1,13.5a1.815,1.815,0,0,0,.581-1.47v-.658Zm7.476,2.534a3.829,3.829,0,0,0,.6-.049,2.762,2.762,0,0,0,.532-.133v1.12a3.061,3.061,0,0,1-.651.189,4.239,4.239,0,0,1-.805.077,2.991,2.991,0,0,1-1.134-.21,1.65,1.65,0,0,1-.819-.728,2.884,2.884,0,0,1-.3-1.442V8.588h-1.05V7.916l1.106-.56.518-1.6h.91V7.454h2.156V8.588H81.06v4.144a1.222,1.222,0,0,0,.3.91A1.084,1.084,0,0,0,82.152,13.936Zm5.684,1.2a3.449,3.449,0,0,1-2.52-.931,3.952,3.952,0,0,1-.952-2.933,4.823,4.823,0,0,1,.462-2.268A2.938,2.938,0,0,1,86.1,7.727a4.019,4.019,0,0,1,1.848-.413,5.262,5.262,0,0,1,2.1.434l-.448,1.2a6.966,6.966,0,0,0-.833-.266,3.389,3.389,0,0,0-.833-.112q-2.044,0-2.044,2.688a3.231,3.231,0,0,0,.5,1.96,1.739,1.739,0,0,0,1.484.672,4.008,4.008,0,0,0,1.113-.14,4.327,4.327,0,0,0,.889-.364v1.288a3.167,3.167,0,0,1-.882.35A5.156,5.156,0,0,1,87.836,15.14ZM93.142,7.2q0,.364-.028.707t-.056.567h.1a2.212,2.212,0,0,1,.973-.868,3.129,3.129,0,0,1,1.323-.28,2.883,2.883,0,0,1,2.037.658,2.75,2.75,0,0,1,.707,2.1V15h-1.47V10.3q0-1.764-1.554-1.764a1.733,1.733,0,0,0-1.6.693,3.747,3.747,0,0,0-.434,1.981V15H91.658V4.36h1.484Zm14.7.112q.2,0,.427.021t.4.049l-.154,1.386a2.9,2.9,0,0,0-.756-.1A2.123,2.123,0,0,0,105.9,9.757a2.508,2.508,0,0,0-.3,1.267V15h-1.484V7.454h1.176l.2,1.344h.056a3.762,3.762,0,0,1,.938-1.043A2.164,2.164,0,0,1,107.842,7.314Zm4.914,0a3.039,3.039,0,0,1,2.338.917,3.522,3.522,0,0,1,.854,2.5v.812H110.88a2.591,2.591,0,0,0,.609,1.778,2.134,2.134,0,0,0,1.631.616,5.7,5.7,0,0,0,1.295-.133,6.667,6.667,0,0,0,1.169-.4v1.232a6.116,6.116,0,0,1-1.148.378,6.483,6.483,0,0,1-1.372.126,4.139,4.139,0,0,1-1.939-.434,3.083,3.083,0,0,1-1.3-1.3,4.386,4.386,0,0,1-.469-2.121,4.919,4.919,0,0,1,.427-2.156,3.15,3.15,0,0,1,1.19-1.351A3.34,3.34,0,0,1,112.756,7.314Zm0,1.148a1.669,1.669,0,0,0-1.281.518,2.4,2.4,0,0,0-.567,1.47h3.556a2.4,2.4,0,0,0-.427-1.435A1.494,1.494,0,0,0,112.756,8.462ZM119.28,15H117.8V4.36h1.484Zm5.292-7.686a3.039,3.039,0,0,1,2.338.917,3.522,3.522,0,0,1,.854,2.5v.812H122.7a2.591,2.591,0,0,0,.609,1.778,2.134,2.134,0,0,0,1.631.616,5.7,5.7,0,0,0,1.295-.133,6.667,6.667,0,0,0,1.169-.4v1.232a6.116,6.116,0,0,1-1.148.378,6.483,6.483,0,0,1-1.372.126,4.139,4.139,0,0,1-1.939-.434,3.083,3.083,0,0,1-1.3-1.3,4.386,4.386,0,0,1-.469-2.121,4.919,4.919,0,0,1,.427-2.156,3.15,3.15,0,0,1,1.19-1.351A3.34,3.34,0,0,1,124.572,7.314Zm0,1.148a1.669,1.669,0,0,0-1.281.518,2.4,2.4,0,0,0-.567,1.47h3.556a2.4,2.4,0,0,0-.427-1.435A1.494,1.494,0,0,0,124.572,8.462Zm7.966-1.148a3.128,3.128,0,0,1,2.121.623,2.473,2.473,0,0,1,.707,1.953V15h-1.05l-.294-1.05h-.056a3.373,3.373,0,0,1-1.029.9,3.206,3.206,0,0,1-1.491.287,2.578,2.578,0,0,1-1.694-.553,2.111,2.111,0,0,1-.672-1.729,2,2,0,0,1,.868-1.75,5.024,5.024,0,0,1,2.674-.658l1.288-.042v-.42a1.522,1.522,0,0,0-.378-1.169,1.527,1.527,0,0,0-1.064-.343,3.651,3.651,0,0,0-1.106.168,7.516,7.516,0,0,0-1.022.406l-.476-1.078a6.041,6.041,0,0,1,1.225-.469A5.483,5.483,0,0,1,132.538,7.314Zm.35,4.088a3.377,3.377,0,0,0-1.785.427,1.226,1.226,0,0,0-.5,1.043,1,1,0,0,0,.35.854,1.463,1.463,0,0,0,.91.266,2.17,2.17,0,0,0,1.449-.49,1.815,1.815,0,0,0,.581-1.47v-.658Zm9.772,1.47a1.945,1.945,0,0,1-.812,1.687,3.817,3.817,0,0,1-2.254.581,6.746,6.746,0,0,1-1.365-.119,4.716,4.716,0,0,1-1.043-.343v-1.3a7.1,7.1,0,0,0,1.155.427,4.726,4.726,0,0,0,1.295.189,2.124,2.124,0,0,0,1.211-.266.835.835,0,0,0,.371-.714.783.783,0,0,0-.14-.455,1.574,1.574,0,0,0-.525-.42,8.611,8.611,0,0,0-1.127-.5,9.87,9.87,0,0,1-1.225-.581,2.239,2.239,0,0,1-.763-.686,1.821,1.821,0,0,1-.266-1.029,1.7,1.7,0,0,1,.791-1.505,3.728,3.728,0,0,1,2.093-.525,5.768,5.768,0,0,1,1.295.14,6.634,6.634,0,0,1,1.183.392l-.49,1.134a8.328,8.328,0,0,0-1.008-.357,3.828,3.828,0,0,0-1.05-.147,2.013,2.013,0,0,0-1.022.21.653.653,0,0,0-.35.588.687.687,0,0,0,.168.462,1.791,1.791,0,0,0,.567.392q.4.2,1.1.476a8.9,8.9,0,0,1,1.2.546,2.085,2.085,0,0,1,.756.686A1.9,1.9,0,0,1,142.66,12.872Zm4.732-5.558a3.039,3.039,0,0,1,2.338.917,3.522,3.522,0,0,1,.854,2.5v.812h-5.068a2.591,2.591,0,0,0,.609,1.778,2.134,2.134,0,0,0,1.631.616,5.7,5.7,0,0,0,1.295-.133,6.667,6.667,0,0,0,1.169-.4v1.232a6.116,6.116,0,0,1-1.148.378,6.483,6.483,0,0,1-1.372.126,4.139,4.139,0,0,1-1.939-.434,3.083,3.083,0,0,1-1.3-1.3,4.386,4.386,0,0,1-.469-2.121,4.919,4.919,0,0,1,.427-2.156,3.15,3.15,0,0,1,1.19-1.351A3.34,3.34,0,0,1,147.392,7.314Zm0,1.148a1.669,1.669,0,0,0-1.281.518,2.4,2.4,0,0,0-.567,1.47H149.1a2.4,2.4,0,0,0-.427-1.435A1.494,1.494,0,0,0,147.392,8.462Zm12.5-1.148a2.835,2.835,0,0,1,2.016.658,2.787,2.787,0,0,1,.7,2.114V15h-1.47V10.3q0-1.764-1.554-1.764a1.74,1.74,0,0,0-1.6.686,3.708,3.708,0,0,0-.434,1.974V15h-1.484V7.454h1.176l.21,1.008h.084a2.184,2.184,0,0,1,1-.868A3.32,3.32,0,0,1,159.894,7.314Zm11.648,3.906a4.056,4.056,0,0,1-.966,2.9,3.413,3.413,0,0,1-2.6,1.022,3.528,3.528,0,0,1-1.813-.462,3.231,3.231,0,0,1-1.246-1.337,4.55,4.55,0,0,1-.455-2.121,4.067,4.067,0,0,1,.952-2.891,3.4,3.4,0,0,1,2.6-1.015,3.6,3.6,0,0,1,1.827.455,3.194,3.194,0,0,1,1.246,1.323A4.54,4.54,0,0,1,171.542,11.22Zm-5.558,0a3.517,3.517,0,0,0,.483,1.988,2,2,0,0,0,3.066,0,3.517,3.517,0,0,0,.483-1.988,3.4,3.4,0,0,0-.49-1.981,1.756,1.756,0,0,0-1.54-.693,1.719,1.719,0,0,0-1.526.693A3.48,3.48,0,0,0,165.984,11.22Zm10.15,2.716a3.829,3.829,0,0,0,.6-.049,2.762,2.762,0,0,0,.532-.133v1.12a3.061,3.061,0,0,1-.651.189,4.239,4.239,0,0,1-.805.077,2.991,2.991,0,0,1-1.134-.21,1.65,1.65,0,0,1-.819-.728,2.884,2.884,0,0,1-.3-1.442V8.588h-1.05V7.916l1.106-.56.518-1.6h.91V7.454H177.2V8.588h-2.156v4.144a1.222,1.222,0,0,0,.3.91A1.084,1.084,0,0,0,176.134,13.936Zm3.4-9.352a.93.93,0,0,1,.588.2.784.784,0,0,1,.252.658.787.787,0,0,1-.252.651.91.91,0,0,1-.588.2.923.923,0,0,1-.609-.2.8.8,0,0,1-.245-.651.8.8,0,0,1,.245-.658A.944.944,0,0,1,179.536,4.584Zm.728,2.87V15H178.78V7.454Zm6.006,1.134h-1.862V15h-1.484V8.588H181.65v-.7l1.274-.462V6.95a2.68,2.68,0,0,1,.665-2.051,2.645,2.645,0,0,1,1.855-.609,4.431,4.431,0,0,1,.9.084,5.461,5.461,0,0,1,.686.182l-.378,1.134q-.238-.07-.525-.133a2.835,2.835,0,0,0-.609-.063q-1.106,0-1.106,1.47v.49h1.862Zm2.072-4a.93.93,0,0,1,.588.2.784.784,0,0,1,.252.658.787.787,0,0,1-.252.651.91.91,0,0,1-.588.2.923.923,0,0,1-.609-.2.8.8,0,0,1-.245-.651.8.8,0,0,1,.245-.658A.944.944,0,0,1,188.342,4.584Zm.728,2.87V15h-1.484V7.454Zm5.362,7.686a3.449,3.449,0,0,1-2.52-.931,3.952,3.952,0,0,1-.952-2.933,4.823,4.823,0,0,1,.462-2.268A2.938,2.938,0,0,1,192.7,7.727a4.019,4.019,0,0,1,1.848-.413,5.262,5.262,0,0,1,2.1.434l-.448,1.2a6.966,6.966,0,0,0-.833-.266,3.389,3.389,0,0,0-.833-.112q-2.044,0-2.044,2.688a3.231,3.231,0,0,0,.5,1.96,1.739,1.739,0,0,0,1.484.672,4.008,4.008,0,0,0,1.113-.14,4.327,4.327,0,0,0,.889-.364v1.288a3.167,3.167,0,0,1-.882.35A5.156,5.156,0,0,1,194.432,15.14Zm6.748-7.826a3.128,3.128,0,0,1,2.121.623,2.473,2.473,0,0,1,.707,1.953V15h-1.05l-.294-1.05h-.056a3.373,3.373,0,0,1-1.029.9,3.206,3.206,0,0,1-1.491.287,2.578,2.578,0,0,1-1.694-.553,2.111,2.111,0,0,1-.672-1.729,2,2,0,0,1,.868-1.75,5.024,5.024,0,0,1,2.674-.658l1.288-.042v-.42a1.522,1.522,0,0,0-.378-1.169,1.527,1.527,0,0,0-1.064-.343A3.651,3.651,0,0,0,200,8.644a7.516,7.516,0,0,0-1.022.406l-.476-1.078a6.041,6.041,0,0,1,1.225-.469A5.483,5.483,0,0,1,201.18,7.314Zm.35,4.088a3.377,3.377,0,0,0-1.785.427,1.226,1.226,0,0,0-.5,1.043,1,1,0,0,0,.35.854,1.463,1.463,0,0,0,.91.266,2.17,2.17,0,0,0,1.449-.49,1.815,1.815,0,0,0,.581-1.47v-.658Zm7.476,2.534a3.829,3.829,0,0,0,.6-.049,2.762,2.762,0,0,0,.532-.133v1.12a3.061,3.061,0,0,1-.651.189,4.239,4.239,0,0,1-.805.077,2.991,2.991,0,0,1-1.134-.21,1.65,1.65,0,0,1-.819-.728,2.884,2.884,0,0,1-.3-1.442V8.588h-1.05V7.916l1.106-.56L207,5.76h.91V7.454h2.156V8.588h-2.156v4.144a1.222,1.222,0,0,0,.3.91A1.084,1.084,0,0,0,209.006,13.936Zm3.4-9.352a.93.93,0,0,1,.588.2.784.784,0,0,1,.252.658.787.787,0,0,1-.252.651.91.91,0,0,1-.588.2.923.923,0,0,1-.609-.2.8.8,0,0,1-.245-.651.8.8,0,0,1,.245-.658A.944.944,0,0,1,212.408,4.584Zm.728,2.87V15h-1.484V7.454Zm8.974,3.766a4.056,4.056,0,0,1-.966,2.9,3.413,3.413,0,0,1-2.6,1.022,3.528,3.528,0,0,1-1.813-.462,3.231,3.231,0,0,1-1.246-1.337,4.55,4.55,0,0,1-.455-2.121,4.067,4.067,0,0,1,.952-2.891,3.4,3.4,0,0,1,2.6-1.015,3.6,3.6,0,0,1,1.827.455,3.194,3.194,0,0,1,1.246,1.323A4.54,4.54,0,0,1,222.11,11.22Zm-5.558,0a3.517,3.517,0,0,0,.483,1.988,2,2,0,0,0,3.066,0,3.517,3.517,0,0,0,.483-1.988,3.4,3.4,0,0,0-.49-1.981,1.756,1.756,0,0,0-1.54-.693,1.719,1.719,0,0,0-1.526.693A3.48,3.48,0,0,0,216.552,11.22Zm11.256-3.906a2.835,2.835,0,0,1,2.016.658,2.787,2.787,0,0,1,.7,2.114V15h-1.47V10.3q0-1.764-1.554-1.764a1.74,1.74,0,0,0-1.6.686,3.708,3.708,0,0,0-.434,1.974V15h-1.484V7.454h1.176l.21,1.008h.084a2.184,2.184,0,0,1,1-.868A3.32,3.32,0,0,1,227.808,7.314ZM3.878,33.936a3.829,3.829,0,0,0,.6-.049,2.762,2.762,0,0,0,.532-.133v1.12a3.061,3.061,0,0,1-.651.189,4.239,4.239,0,0,1-.8.077,2.991,2.991,0,0,1-1.134-.21A1.65,1.65,0,0,1,1.6,34.2a2.884,2.884,0,0,1-.3-1.442V28.588H.252v-.672l1.106-.56.518-1.6h.91v1.694H4.942v1.134H2.786v4.144a1.222,1.222,0,0,0,.3.91A1.084,1.084,0,0,0,3.878,33.936Zm3.4-9.352a.93.93,0,0,1,.588.2.976.976,0,0,1,0,1.309.91.91,0,0,1-.588.2.923.923,0,0,1-.609-.2,1,1,0,0,1,0-1.309A.944.944,0,0,1,7.28,24.584Zm.728,2.87V35H6.524V27.454Zm10.78-.14a2.569,2.569,0,0,1,1.918.658,2.938,2.938,0,0,1,.644,2.114V35H19.866V30.282q0-1.75-1.414-1.75a1.632,1.632,0,0,0-1.442.623,3.1,3.1,0,0,0-.434,1.785V35h-1.47V30.282q0-1.75-1.428-1.75a1.547,1.547,0,0,0-1.463.686,3.975,3.975,0,0,0-.4,1.974V35H10.332V27.454h1.176l.21,1.008H11.8a2.059,2.059,0,0,1,.938-.868,2.985,2.985,0,0,1,1.274-.28,2.249,2.249,0,0,1,2.3,1.218h.112a2.194,2.194,0,0,1,1.008-.924A3.232,3.232,0,0,1,18.788,27.314Zm7.8,0a3.039,3.039,0,0,1,2.338.917,3.522,3.522,0,0,1,.854,2.5v.812H24.71a2.591,2.591,0,0,0,.609,1.778,2.134,2.134,0,0,0,1.631.616,5.7,5.7,0,0,0,1.3-.133,6.667,6.667,0,0,0,1.169-.4v1.232a6.116,6.116,0,0,1-1.148.378,6.483,6.483,0,0,1-1.372.126,4.139,4.139,0,0,1-1.939-.434,3.083,3.083,0,0,1-1.3-1.3,4.386,4.386,0,0,1-.469-2.121,4.919,4.919,0,0,1,.427-2.156,3.15,3.15,0,0,1,1.19-1.351A3.34,3.34,0,0,1,26.586,27.314Zm0,1.148a1.669,1.669,0,0,0-1.281.518,2.4,2.4,0,0,0-.567,1.47h3.556a2.4,2.4,0,0,0-.427-1.435A1.494,1.494,0,0,0,26.586,28.462Zm10.052,4.41a1.945,1.945,0,0,1-.812,1.687,3.817,3.817,0,0,1-2.254.581,6.746,6.746,0,0,1-1.365-.119,4.716,4.716,0,0,1-1.043-.343v-1.3a7.1,7.1,0,0,0,1.155.427,4.726,4.726,0,0,0,1.3.189,2.124,2.124,0,0,0,1.211-.266.835.835,0,0,0,.371-.714.783.783,0,0,0-.14-.455,1.574,1.574,0,0,0-.525-.42,8.611,8.611,0,0,0-1.127-.5,9.869,9.869,0,0,1-1.225-.581,2.239,2.239,0,0,1-.763-.686,1.821,1.821,0,0,1-.266-1.029,1.7,1.7,0,0,1,.791-1.5,3.728,3.728,0,0,1,2.093-.525,5.768,5.768,0,0,1,1.3.14,6.634,6.634,0,0,1,1.183.392l-.49,1.134a8.327,8.327,0,0,0-1.008-.357,3.828,3.828,0,0,0-1.05-.147,2.013,2.013,0,0,0-1.022.21.653.653,0,0,0-.35.588.687.687,0,0,0,.168.462,1.791,1.791,0,0,0,.567.392q.4.2,1.1.476a8.9,8.9,0,0,1,1.2.546,2.085,2.085,0,0,1,.756.686A1.9,1.9,0,0,1,36.638,32.872Zm6.888-5.95q0,.462-.028.882t-.042.644h.07a2.5,2.5,0,0,1,.861-.8,2.8,2.8,0,0,1,1.421-.322,2.735,2.735,0,0,1,2.191.98,4.4,4.4,0,0,1,.833,2.912,4.425,4.425,0,0,1-.84,2.933,2.748,2.748,0,0,1-2.2.987,2.8,2.8,0,0,1-1.421-.315,2.665,2.665,0,0,1-.847-.749h-.112l-.28.924H42.042V24.36h1.484Zm1.932,1.61a1.676,1.676,0,0,0-1.512.637,3.6,3.6,0,0,0-.42,1.953v.112a3.937,3.937,0,0,0,.413,1.995,1.649,1.649,0,0,0,1.547.693,1.524,1.524,0,0,0,1.358-.7,3.661,3.661,0,0,0,.462-2.016Q47.306,28.532,45.458,28.532Zm3.836-1.078h1.6l1.568,4.284q.182.49.315.945a7.332,7.332,0,0,1,.2.889h.056q.07-.364.217-.854t.329-.994l1.484-4.27h1.6l-3.234,8.568a4.321,4.321,0,0,1-1.085,1.715,2.517,2.517,0,0,1-1.771.623,4.452,4.452,0,0,1-.6-.035q-.252-.035-.434-.077V37.072q.14.028.364.056a3.723,3.723,0,0,0,.462.028,1.445,1.445,0,0,0,1.036-.371,2.526,2.526,0,0,0,.616-.973L52.318,35Zm15.932-.14a2.735,2.735,0,0,1,2.191.98,4.422,4.422,0,0,1,.833,2.926,4.435,4.435,0,0,1-.84,2.919,2.731,2.731,0,0,1-2.2,1,2.768,2.768,0,0,1-1.407-.315,2.829,2.829,0,0,1-.861-.749h-.1q.042.252.07.6t.028.609v3.08H61.46V27.454h1.2l.21,1.008h.07a2.823,2.823,0,0,1,.861-.812A2.658,2.658,0,0,1,65.226,27.314Zm-.35,1.218a1.7,1.7,0,0,0-1.484.609,3.246,3.246,0,0,0-.448,1.841v.224a3.963,3.963,0,0,0,.42,2.009,1.64,1.64,0,0,0,1.54.707,1.487,1.487,0,0,0,1.372-.756,3.84,3.84,0,0,0,.448-1.974,3.64,3.64,0,0,0-.448-1.946A1.534,1.534,0,0,0,64.876,28.532Zm8.232-1.218a3.039,3.039,0,0,1,2.338.917,3.522,3.522,0,0,1,.854,2.5v.812H71.232a2.591,2.591,0,0,0,.609,1.778,2.134,2.134,0,0,0,1.631.616,5.7,5.7,0,0,0,1.295-.133,6.667,6.667,0,0,0,1.169-.4v1.232a6.116,6.116,0,0,1-1.148.378,6.483,6.483,0,0,1-1.372.126,4.139,4.139,0,0,1-1.939-.434,3.083,3.083,0,0,1-1.3-1.3,4.386,4.386,0,0,1-.469-2.121,4.919,4.919,0,0,1,.427-2.156,3.15,3.15,0,0,1,1.19-1.351A3.34,3.34,0,0,1,73.108,27.314Zm0,1.148a1.669,1.669,0,0,0-1.281.518,2.4,2.4,0,0,0-.567,1.47h3.556a2.4,2.4,0,0,0-.427-1.435A1.494,1.494,0,0,0,73.108,28.462Zm8.764-1.148q.2,0,.427.021t.4.049l-.154,1.386a2.9,2.9,0,0,0-.756-.1,2.123,2.123,0,0,0-1.855,1.085,2.508,2.508,0,0,0-.3,1.267V35H78.148V27.454h1.176l.2,1.344h.056a3.762,3.762,0,0,1,.938-1.043A2.164,2.164,0,0,1,81.872,27.314Zm5.908,1.274H85.918V35H84.434V28.588H83.16v-.7l1.274-.462V26.95A2.68,2.68,0,0,1,85.1,24.9a2.645,2.645,0,0,1,1.855-.609,4.43,4.43,0,0,1,.9.084,5.462,5.462,0,0,1,.686.182l-.378,1.134q-.238-.07-.525-.133a2.835,2.835,0,0,0-.609-.063q-1.106,0-1.106,1.47v.49H87.78Zm7.966,2.632a4.056,4.056,0,0,1-.966,2.9,3.413,3.413,0,0,1-2.6,1.022,3.528,3.528,0,0,1-1.813-.462,3.231,3.231,0,0,1-1.246-1.337,4.55,4.55,0,0,1-.455-2.121,4.067,4.067,0,0,1,.952-2.891,3.4,3.4,0,0,1,2.6-1.015,3.6,3.6,0,0,1,1.827.455,3.194,3.194,0,0,1,1.246,1.323A4.54,4.54,0,0,1,95.746,31.22Zm-5.558,0a3.517,3.517,0,0,0,.483,1.988,2,2,0,0,0,3.066,0,3.517,3.517,0,0,0,.483-1.988,3.4,3.4,0,0,0-.49-1.981,1.756,1.756,0,0,0-1.54-.693,1.719,1.719,0,0,0-1.526.693A3.48,3.48,0,0,0,90.188,31.22Zm11.158-3.906q.2,0,.427.021t.4.049l-.154,1.386a2.9,2.9,0,0,0-.756-.1,2.123,2.123,0,0,0-1.855,1.085,2.508,2.508,0,0,0-.3,1.267V35H97.622V27.454H98.8l.2,1.344h.056a3.762,3.762,0,0,1,.938-1.043A2.164,2.164,0,0,1,101.346,27.314Zm10.682,0a2.569,2.569,0,0,1,1.918.658,2.938,2.938,0,0,1,.644,2.114V35h-1.484V30.282q0-1.75-1.414-1.75a1.632,1.632,0,0,0-1.442.623,3.1,3.1,0,0,0-.434,1.785V35h-1.47V30.282q0-1.75-1.428-1.75a1.547,1.547,0,0,0-1.463.686,3.975,3.975,0,0,0-.4,1.974V35h-1.484V27.454h1.176l.21,1.008h.084a2.059,2.059,0,0,1,.938-.868,2.985,2.985,0,0,1,1.274-.28,2.249,2.249,0,0,1,2.3,1.218h.112a2.194,2.194,0,0,1,1.008-.924A3.232,3.232,0,0,1,112.028,27.314Zm5.586-2.73a.93.93,0,0,1,.588.2.976.976,0,0,1,0,1.309.91.91,0,0,1-.588.2.923.923,0,0,1-.609-.2,1,1,0,0,1,0-1.309A.944.944,0,0,1,117.614,24.584Zm.728,2.87V35h-1.484V27.454Zm6.146-.14a2.835,2.835,0,0,1,2.016.658,2.787,2.787,0,0,1,.7,2.114V35h-1.47V30.3q0-1.764-1.554-1.764a1.74,1.74,0,0,0-1.6.686,3.708,3.708,0,0,0-.434,1.974V35h-1.484V27.454h1.176l.21,1.008h.084a2.184,2.184,0,0,1,1-.868A3.32,3.32,0,0,1,124.488,27.314Zm7.6,0a2.672,2.672,0,0,1,2.31,1.134h.07l.168-.994h1.2V35.1a3.223,3.223,0,0,1-.861,2.436,3.667,3.667,0,0,1-2.625.826,9.285,9.285,0,0,1-1.505-.112,5.672,5.672,0,0,1-1.253-.35V36.6a6.411,6.411,0,0,0,2.842.588,1.887,1.887,0,0,0,1.428-.525,2.046,2.046,0,0,0,.5-1.477V34.93q0-.182.014-.476t.028-.448h-.056a2.3,2.3,0,0,1-.952.861,3.029,3.029,0,0,1-1.316.273,2.676,2.676,0,0,1-2.233-1.029,4.541,4.541,0,0,1-.805-2.863,4.64,4.64,0,0,1,.805-2.877A2.649,2.649,0,0,1,132.09,27.314Zm.308,1.232a1.528,1.528,0,0,0-1.351.7,3.617,3.617,0,0,0-.469,2.016,3.545,3.545,0,0,0,.469,2,1.563,1.563,0,0,0,1.379.686,1.889,1.889,0,0,0,1.519-.567,2.851,2.851,0,0,0,.483-1.855v-.28a3.416,3.416,0,0,0-.49-2.072A1.829,1.829,0,0,0,132.4,28.546ZM143.5,35l-2.856-7.546h1.568l1.568,4.41q.154.434.308.973a5.961,5.961,0,0,1,.2.889h.056a6.89,6.89,0,0,1,.224-.9q.168-.546.308-.966l1.568-4.41h1.568L145.138,35Zm8.638-7.686a3.039,3.039,0,0,1,2.338.917,3.522,3.522,0,0,1,.854,2.5v.812h-5.068a2.591,2.591,0,0,0,.609,1.778,2.134,2.134,0,0,0,1.631.616A5.7,5.7,0,0,0,153.8,33.8a6.667,6.667,0,0,0,1.169-.4v1.232a6.116,6.116,0,0,1-1.148.378,6.483,6.483,0,0,1-1.372.126,4.139,4.139,0,0,1-1.939-.434,3.083,3.083,0,0,1-1.3-1.3,4.386,4.386,0,0,1-.469-2.121,4.919,4.919,0,0,1,.427-2.156,3.15,3.15,0,0,1,1.19-1.351A3.34,3.34,0,0,1,152.138,27.314Zm0,1.148a1.669,1.669,0,0,0-1.281.518,2.4,2.4,0,0,0-.567,1.47h3.556a2.4,2.4,0,0,0-.427-1.435A1.494,1.494,0,0,0,152.138,28.462Zm8.764-1.148q.2,0,.427.021t.4.049l-.154,1.386a2.9,2.9,0,0,0-.756-.1,2.123,2.123,0,0,0-1.855,1.085,2.508,2.508,0,0,0-.3,1.267V35h-1.484V27.454h1.176l.2,1.344h.056a3.762,3.762,0,0,1,.938-1.043A2.164,2.164,0,0,1,160.9,27.314Zm2.982-2.73a.93.93,0,0,1,.588.2.976.976,0,0,1,0,1.309.91.91,0,0,1-.588.2.923.923,0,0,1-.609-.2,1,1,0,0,1,0-1.309A.944.944,0,0,1,163.884,24.584Zm.728,2.87V35h-1.484V27.454Zm6.006,1.134h-1.862V35h-1.484V28.588H166v-.7l1.274-.462V26.95a2.68,2.68,0,0,1,.665-2.051,2.645,2.645,0,0,1,1.855-.609,4.431,4.431,0,0,1,.9.084,5.463,5.463,0,0,1,.686.182L171,25.69q-.238-.07-.525-.133a2.835,2.835,0,0,0-.609-.063q-1.106,0-1.106,1.47v.49h1.862Zm2.072-4a.93.93,0,0,1,.588.2.976.976,0,0,1,0,1.309.91.91,0,0,1-.588.2.923.923,0,0,1-.609-.2,1,1,0,0,1,0-1.309A.944.944,0,0,1,172.69,24.584Zm.728,2.87V35h-1.484V27.454Zm5.362,7.686a3.449,3.449,0,0,1-2.52-.931,3.952,3.952,0,0,1-.952-2.933,4.823,4.823,0,0,1,.462-2.268,2.938,2.938,0,0,1,1.274-1.281,4.019,4.019,0,0,1,1.848-.413,5.262,5.262,0,0,1,2.1.434l-.448,1.2a6.966,6.966,0,0,0-.833-.266,3.389,3.389,0,0,0-.833-.112q-2.044,0-2.044,2.688a3.231,3.231,0,0,0,.5,1.96,1.739,1.739,0,0,0,1.484.672,4.008,4.008,0,0,0,1.113-.14,4.327,4.327,0,0,0,.889-.364v1.288a3.167,3.167,0,0,1-.882.35A5.156,5.156,0,0,1,178.78,35.14Zm6.748-7.826a3.128,3.128,0,0,1,2.121.623,2.473,2.473,0,0,1,.707,1.953V35h-1.05l-.294-1.05h-.056a3.373,3.373,0,0,1-1.029.9,3.206,3.206,0,0,1-1.491.287,2.578,2.578,0,0,1-1.694-.553,2.111,2.111,0,0,1-.672-1.729,2,2,0,0,1,.868-1.75,5.024,5.024,0,0,1,2.674-.658l1.288-.042v-.42a1.288,1.288,0,0,0-1.442-1.512,3.651,3.651,0,0,0-1.106.168,7.516,7.516,0,0,0-1.022.406l-.476-1.078a6.041,6.041,0,0,1,1.225-.469A5.483,5.483,0,0,1,185.528,27.314Zm.35,4.088a3.377,3.377,0,0,0-1.785.427,1.226,1.226,0,0,0-.5,1.043,1,1,0,0,0,.35.854,1.463,1.463,0,0,0,.91.266,2.17,2.17,0,0,0,1.449-.49,1.815,1.815,0,0,0,.581-1.47v-.658Zm7.476,2.534a3.829,3.829,0,0,0,.6-.049,2.762,2.762,0,0,0,.532-.133v1.12a3.061,3.061,0,0,1-.651.189,4.239,4.239,0,0,1-.805.077,2.991,2.991,0,0,1-1.134-.21,1.65,1.65,0,0,1-.819-.728,2.884,2.884,0,0,1-.3-1.442V28.588h-1.05v-.672l1.106-.56.518-1.6h.91v1.694h2.156v1.134h-2.156v4.144a1.222,1.222,0,0,0,.3.91A1.084,1.084,0,0,0,193.354,33.936Zm3.4-9.352a.93.93,0,0,1,.588.2.976.976,0,0,1,0,1.309.91.91,0,0,1-.588.2.923.923,0,0,1-.609-.2,1,1,0,0,1,0-1.309A.944.944,0,0,1,196.756,24.584Zm.728,2.87V35H196V27.454Zm8.974,3.766a4.056,4.056,0,0,1-.966,2.9,3.413,3.413,0,0,1-2.6,1.022,3.528,3.528,0,0,1-1.813-.462,3.231,3.231,0,0,1-1.246-1.337,4.55,4.55,0,0,1-.455-2.121,4.067,4.067,0,0,1,.952-2.891,3.4,3.4,0,0,1,2.6-1.015,3.6,3.6,0,0,1,1.827.455A3.194,3.194,0,0,1,206,29.092,4.54,4.54,0,0,1,206.458,31.22Zm-5.558,0a3.517,3.517,0,0,0,.483,1.988,2,2,0,0,0,3.066,0,3.517,3.517,0,0,0,.483-1.988,3.4,3.4,0,0,0-.49-1.981,1.756,1.756,0,0,0-1.54-.693,1.719,1.719,0,0,0-1.526.693A3.48,3.48,0,0,0,200.9,31.22Zm11.256-3.906a2.835,2.835,0,0,1,2.016.658,2.787,2.787,0,0,1,.7,2.114V35H213.4V30.3q0-1.764-1.554-1.764a1.74,1.74,0,0,0-1.6.686,3.708,3.708,0,0,0-.434,1.974V35h-1.484V27.454h1.176l.21,1.008h.084a2.184,2.184,0,0,1,1-.868A3.32,3.32,0,0,1,212.156,27.314Zm-208.068,20a3.128,3.128,0,0,1,2.121.623,2.473,2.473,0,0,1,.707,1.953V55H5.866l-.294-1.05H5.516a3.372,3.372,0,0,1-1.029.9A3.206,3.206,0,0,1,3,55.14,2.578,2.578,0,0,1,1.3,54.587,2.111,2.111,0,0,1,.63,52.858a2,2,0,0,1,.868-1.75,5.024,5.024,0,0,1,2.674-.658l1.288-.042v-.42a1.522,1.522,0,0,0-.378-1.169,1.527,1.527,0,0,0-1.064-.343,3.651,3.651,0,0,0-1.106.168,7.516,7.516,0,0,0-1.022.406l-.476-1.078A6.041,6.041,0,0,1,2.639,47.5,5.483,5.483,0,0,1,4.088,47.314Zm.35,4.088a3.377,3.377,0,0,0-1.785.427,1.226,1.226,0,0,0-.5,1.043,1,1,0,0,0,.35.854,1.463,1.463,0,0,0,.91.266,2.17,2.17,0,0,0,1.449-.49,1.815,1.815,0,0,0,.581-1.47v-.658Zm8.582-4.088a2.835,2.835,0,0,1,2.016.658,2.787,2.787,0,0,1,.7,2.114V55h-1.47V50.3q0-1.764-1.554-1.764a1.74,1.74,0,0,0-1.6.686,3.708,3.708,0,0,0-.434,1.974V55H9.2V47.454h1.176l.21,1.008h.084a2.184,2.184,0,0,1,1-.868A3.32,3.32,0,0,1,13.02,47.314Zm7.588,7.826a2.735,2.735,0,0,1-2.191-.98,4.4,4.4,0,0,1-.833-2.912,4.454,4.454,0,0,1,.84-2.94,2.754,2.754,0,0,1,2.212-.994,2.727,2.727,0,0,1,1.4.322,2.88,2.88,0,0,1,.882.784H23q-.028-.182-.07-.56a6.159,6.159,0,0,1-.042-.672V44.36h1.484V55H23.212l-.252-1.008h-.07a2.662,2.662,0,0,1-.868.819A2.71,2.71,0,0,1,20.608,55.14Zm.35-1.218a1.788,1.788,0,0,0,1.54-.609,3.074,3.074,0,0,0,.448-1.827v-.224a3.943,3.943,0,0,0-.427-2.023,1.687,1.687,0,0,0-1.575-.707,1.517,1.517,0,0,0-1.372.735,3.755,3.755,0,0,0-.462,2.009,3.5,3.5,0,0,0,.462,1.96A1.56,1.56,0,0,0,20.958,53.922Zm13.1-6.608q.2,0,.427.021t.4.049l-.154,1.386a2.9,2.9,0,0,0-.756-.1,2.123,2.123,0,0,0-1.855,1.085,2.508,2.508,0,0,0-.3,1.267V55H30.338V47.454h1.176l.2,1.344h.056a3.762,3.762,0,0,1,.938-1.043A2.164,2.164,0,0,1,34.062,47.314Zm4.914,0a3.039,3.039,0,0,1,2.338.917,3.522,3.522,0,0,1,.854,2.5v.812H37.1a2.591,2.591,0,0,0,.609,1.778,2.134,2.134,0,0,0,1.631.616,5.7,5.7,0,0,0,1.3-.133,6.667,6.667,0,0,0,1.169-.4v1.232a6.116,6.116,0,0,1-1.148.378,6.483,6.483,0,0,1-1.372.126,4.139,4.139,0,0,1-1.939-.434,3.083,3.083,0,0,1-1.3-1.3,4.386,4.386,0,0,1-.469-2.121A4.919,4.919,0,0,1,36,49.134a3.15,3.15,0,0,1,1.19-1.351A3.34,3.34,0,0,1,38.976,47.314Zm0,1.148a1.669,1.669,0,0,0-1.281.518,2.4,2.4,0,0,0-.567,1.47h3.556a2.4,2.4,0,0,0-.427-1.435A1.494,1.494,0,0,0,38.976,48.462ZM45.5,55H44.016V44.36H45.5Zm5.292-7.686a3.039,3.039,0,0,1,2.338.917,3.522,3.522,0,0,1,.854,2.5v.812H48.916a2.591,2.591,0,0,0,.609,1.778,2.134,2.134,0,0,0,1.631.616,5.7,5.7,0,0,0,1.3-.133,6.667,6.667,0,0,0,1.169-.4v1.232a6.116,6.116,0,0,1-1.148.378,6.483,6.483,0,0,1-1.372.126,4.139,4.139,0,0,1-1.939-.434,3.083,3.083,0,0,1-1.3-1.3,4.386,4.386,0,0,1-.469-2.121,4.919,4.919,0,0,1,.427-2.156,3.15,3.15,0,0,1,1.19-1.351A3.34,3.34,0,0,1,50.792,47.314Zm0,1.148a1.669,1.669,0,0,0-1.281.518,2.4,2.4,0,0,0-.567,1.47H52.5a2.4,2.4,0,0,0-.427-1.435A1.494,1.494,0,0,0,50.792,48.462Zm7.966-1.148a3.128,3.128,0,0,1,2.121.623,2.473,2.473,0,0,1,.707,1.953V55h-1.05l-.294-1.05h-.056a3.372,3.372,0,0,1-1.029.9,3.206,3.206,0,0,1-1.491.287,2.578,2.578,0,0,1-1.694-.553,2.111,2.111,0,0,1-.672-1.729,2,2,0,0,1,.868-1.75,5.024,5.024,0,0,1,2.674-.658l1.288-.042v-.42a1.288,1.288,0,0,0-1.442-1.512,3.651,3.651,0,0,0-1.106.168,7.516,7.516,0,0,0-1.022.406l-.476-1.078a6.041,6.041,0,0,1,1.225-.469A5.483,5.483,0,0,1,58.758,47.314Zm.35,4.088a3.377,3.377,0,0,0-1.785.427,1.226,1.226,0,0,0-.5,1.043,1,1,0,0,0,.35.854,1.463,1.463,0,0,0,.91.266,2.17,2.17,0,0,0,1.449-.49,1.815,1.815,0,0,0,.581-1.47v-.658Zm9.772,1.47a1.945,1.945,0,0,1-.812,1.687,3.817,3.817,0,0,1-2.254.581,6.746,6.746,0,0,1-1.365-.119,4.716,4.716,0,0,1-1.043-.343v-1.3a7.1,7.1,0,0,0,1.155.427,4.726,4.726,0,0,0,1.295.189,2.124,2.124,0,0,0,1.211-.266.835.835,0,0,0,.371-.714.783.783,0,0,0-.14-.455,1.574,1.574,0,0,0-.525-.42,8.611,8.611,0,0,0-1.127-.5,9.87,9.87,0,0,1-1.225-.581,2.239,2.239,0,0,1-.763-.686,1.821,1.821,0,0,1-.266-1.029,1.7,1.7,0,0,1,.791-1.505,3.728,3.728,0,0,1,2.093-.525,5.768,5.768,0,0,1,1.295.14,6.634,6.634,0,0,1,1.183.392l-.49,1.134a8.327,8.327,0,0,0-1.008-.357,3.828,3.828,0,0,0-1.05-.147,2.013,2.013,0,0,0-1.022.21.653.653,0,0,0-.35.588.687.687,0,0,0,.168.462,1.791,1.791,0,0,0,.567.392q.4.2,1.1.476a8.894,8.894,0,0,1,1.2.546,2.085,2.085,0,0,1,.756.686A1.9,1.9,0,0,1,68.88,52.872Zm4.732-5.558a3.039,3.039,0,0,1,2.338.917,3.522,3.522,0,0,1,.854,2.5v.812H71.736a2.591,2.591,0,0,0,.609,1.778,2.134,2.134,0,0,0,1.631.616,5.7,5.7,0,0,0,1.295-.133,6.667,6.667,0,0,0,1.169-.4v1.232a6.116,6.116,0,0,1-1.148.378,6.483,6.483,0,0,1-1.372.126,4.139,4.139,0,0,1-1.939-.434,3.083,3.083,0,0,1-1.3-1.3,4.386,4.386,0,0,1-.469-2.121,4.919,4.919,0,0,1,.427-2.156,3.15,3.15,0,0,1,1.19-1.351A3.34,3.34,0,0,1,73.612,47.314Zm0,1.148a1.669,1.669,0,0,0-1.281.518,2.4,2.4,0,0,0-.567,1.47H75.32a2.4,2.4,0,0,0-.427-1.435A1.494,1.494,0,0,0,73.612,48.462Zm12.4-1.148q.2,0,.427.021t.4.049l-.154,1.386a2.9,2.9,0,0,0-.756-.1,2.123,2.123,0,0,0-1.855,1.085,2.508,2.508,0,0,0-.3,1.267V55H82.292V47.454h1.176l.2,1.344h.056a3.762,3.762,0,0,1,.938-1.043A2.164,2.164,0,0,1,86.016,47.314Zm4.914,0a3.039,3.039,0,0,1,2.338.917,3.522,3.522,0,0,1,.854,2.5v.812H89.054a2.591,2.591,0,0,0,.609,1.778,2.134,2.134,0,0,0,1.631.616,5.7,5.7,0,0,0,1.295-.133,6.667,6.667,0,0,0,1.169-.4v1.232a6.116,6.116,0,0,1-1.148.378,6.483,6.483,0,0,1-1.372.126,4.139,4.139,0,0,1-1.939-.434,3.083,3.083,0,0,1-1.3-1.3,4.386,4.386,0,0,1-.469-2.121,4.919,4.919,0,0,1,.427-2.156,3.15,3.15,0,0,1,1.19-1.351A3.34,3.34,0,0,1,90.93,47.314Zm0,1.148a1.669,1.669,0,0,0-1.281.518,2.4,2.4,0,0,0-.567,1.47h3.556a2.4,2.4,0,0,0-.427-1.435A1.494,1.494,0,0,0,90.93,48.462Zm13.5-1.148a2.569,2.569,0,0,1,1.918.658,2.938,2.938,0,0,1,.644,2.114V55H105.5V50.282q0-1.75-1.414-1.75a1.632,1.632,0,0,0-1.442.623,3.1,3.1,0,0,0-.434,1.785V55h-1.47V50.282q0-1.75-1.428-1.75a1.547,1.547,0,0,0-1.463.686,3.975,3.975,0,0,0-.4,1.974V55H95.97V47.454h1.176l.21,1.008h.084a2.059,2.059,0,0,1,.938-.868,2.985,2.985,0,0,1,1.274-.28,2.249,2.249,0,0,1,2.3,1.218h.112a2.194,2.194,0,0,1,1.008-.924A3.232,3.232,0,0,1,104.426,47.314Zm11.48,3.906a4.056,4.056,0,0,1-.966,2.9,3.413,3.413,0,0,1-2.6,1.022,3.528,3.528,0,0,1-1.813-.462,3.231,3.231,0,0,1-1.246-1.337,4.55,4.55,0,0,1-.455-2.121,4.067,4.067,0,0,1,.952-2.891,3.4,3.4,0,0,1,2.6-1.015,3.6,3.6,0,0,1,1.827.455,3.194,3.194,0,0,1,1.246,1.323A4.54,4.54,0,0,1,115.906,51.22Zm-5.558,0a3.517,3.517,0,0,0,.483,1.988,2,2,0,0,0,3.066,0,3.517,3.517,0,0,0,.483-1.988,3.4,3.4,0,0,0-.49-1.981,1.756,1.756,0,0,0-1.54-.693,1.719,1.719,0,0,0-1.526.693A3.48,3.48,0,0,0,110.348,51.22Zm10.15,2.716a3.829,3.829,0,0,0,.6-.049,2.762,2.762,0,0,0,.532-.133v1.12a3.061,3.061,0,0,1-.651.189,4.239,4.239,0,0,1-.805.077,2.991,2.991,0,0,1-1.134-.21,1.65,1.65,0,0,1-.819-.728,2.884,2.884,0,0,1-.3-1.442V48.588h-1.05v-.672l1.106-.56.518-1.6h.91v1.694h2.156v1.134h-2.156v4.144a1.222,1.222,0,0,0,.3.91A1.084,1.084,0,0,0,120.5,53.936Zm5.614-6.622a3.039,3.039,0,0,1,2.338.917,3.522,3.522,0,0,1,.854,2.5v.812h-5.068a2.591,2.591,0,0,0,.609,1.778,2.134,2.134,0,0,0,1.631.616,5.7,5.7,0,0,0,1.295-.133,6.667,6.667,0,0,0,1.169-.4v1.232a6.116,6.116,0,0,1-1.148.378,6.483,6.483,0,0,1-1.372.126,4.139,4.139,0,0,1-1.939-.434,3.083,3.083,0,0,1-1.3-1.3,4.386,4.386,0,0,1-.469-2.121,4.919,4.919,0,0,1,.427-2.156,3.15,3.15,0,0,1,1.19-1.351A3.34,3.34,0,0,1,126.112,47.314Zm0,1.148a1.669,1.669,0,0,0-1.281.518,2.4,2.4,0,0,0-.567,1.47h3.556a2.4,2.4,0,0,0-.427-1.435A1.494,1.494,0,0,0,126.112,48.462ZM132.636,55h-1.484V44.36h1.484Zm1.176-7.546h1.6l1.568,4.284q.182.49.315.945a7.33,7.33,0,0,1,.2.889h.056q.07-.364.217-.854t.329-.994l1.484-4.27h1.6l-3.234,8.568a4.321,4.321,0,0,1-1.085,1.715,2.517,2.517,0,0,1-1.771.623,4.452,4.452,0,0,1-.6-.035q-.252-.035-.434-.077V57.072q.14.028.364.056a3.723,3.723,0,0,0,.462.028,1.445,1.445,0,0,0,1.036-.371,2.526,2.526,0,0,0,.616-.973l.308-.812Z" transform="translate(274.711 249.9)" fill="#394a56"></path><path id="Path_127912" data-name="Path 127912" d="M27.664,0H2.236V-4.836L11.7-14.4q2.808-2.86,4.6-4.888a17,17,0,0,0,2.652-3.822,8.862,8.862,0,0,0,.858-3.874,4.809,4.809,0,0,0-1.456-3.822,5.633,5.633,0,0,0-3.848-1.274,10.062,10.062,0,0,0-4.368.962,21.3,21.3,0,0,0-4.212,2.73L2.34-32.708a25.847,25.847,0,0,1,5.2-3.458,16.1,16.1,0,0,1,7.332-1.482,13.93,13.93,0,0,1,6.188,1.274,9.384,9.384,0,0,1,3.978,3.51,9.709,9.709,0,0,1,1.378,5.2,12.759,12.759,0,0,1-1.2,5.538,21.327,21.327,0,0,1-3.458,5.044Q19.5-14.56,16.38-11.648L10.5-5.98v.312h17.16ZM44.876-23.348a14.485,14.485,0,0,1,6.24,1.274,9.726,9.726,0,0,1,4.238,3.77,11.407,11.407,0,0,1,1.534,6.084q0,5.928-3.718,9.334T42.432.52A27.287,27.287,0,0,1,36.972,0a16.531,16.531,0,0,1-4.42-1.508V-7.332A19.892,19.892,0,0,0,37.18-5.616a21.05,21.05,0,0,0,5.1.676,9.33,9.33,0,0,0,5.8-1.612A5.948,5.948,0,0,0,50.18-11.6,5.766,5.766,0,0,0,48.2-16.3q-1.976-1.638-6.136-1.638a20.77,20.77,0,0,0-3.146.26q-1.69.26-2.782.52l-2.808-1.56,1.4-18.408H54.288v5.72H40.508l-.78,8.58q.884-.156,2.08-.338A21.081,21.081,0,0,1,44.876-23.348Zm24.856-14.3a7.308,7.308,0,0,1,6.37,3.042q2.158,3.042,2.158,8.554t-2.054,8.606q-2.054,3.094-6.474,3.094a6.982,6.982,0,0,1-6.162-3.094q-2.106-3.094-2.106-8.606t1.976-8.554Q65.416-37.648,69.732-37.648Zm25.428.52L74.568,0h-5.3L89.856-37.128Zm-25.376,4q-2.912,0-2.912,7.124t2.912,7.124Q72.8-18.876,72.8-26T69.784-33.124Zm24.752,10.3a7.25,7.25,0,0,1,6.292,3.068q2.184,3.068,2.184,8.528,0,5.512-2.054,8.606T94.536.468a7.032,7.032,0,0,1-6.214-3.094q-2.106-3.094-2.106-8.606,0-5.46,2-8.528T94.536-22.828Zm0,4.576q-2.912,0-2.912,7.072Q91.624-4,94.536-4,97.6-4,97.6-11.18,97.6-18.252,94.536-18.252Z" transform="translate(154.711 299.9)" fill="#6d1c75"></path><path id="Path_127913" data-name="Path 127913" d="M4.13,5a4.6,4.6,0,0,1,2.835.714,2.579,2.579,0,0,1,.917,2.17,2.67,2.67,0,0,1-.287,1.3,2.571,2.571,0,0,1-.735.854,4.247,4.247,0,0,1-.938.525L8.722,15H6.986L4.578,10.954H2.842V15H1.33V5Zm-.1,1.288H2.842v3.4H4.1A2.64,2.64,0,0,0,5.8,9.253a1.6,1.6,0,0,0,.532-1.309,1.424,1.424,0,0,0-.56-1.274A3.151,3.151,0,0,0,4.032,6.292Zm8.96,1.022a3.039,3.039,0,0,1,2.338.917,3.522,3.522,0,0,1,.854,2.5v.812H11.116a2.591,2.591,0,0,0,.609,1.778,2.134,2.134,0,0,0,1.631.616,5.7,5.7,0,0,0,1.3-.133,6.667,6.667,0,0,0,1.169-.4v1.232a6.116,6.116,0,0,1-1.148.378,6.483,6.483,0,0,1-1.372.126,4.139,4.139,0,0,1-1.939-.434,3.083,3.083,0,0,1-1.3-1.3A4.386,4.386,0,0,1,9.59,11.29a4.919,4.919,0,0,1,.427-2.156,3.15,3.15,0,0,1,1.19-1.351A3.34,3.34,0,0,1,12.992,7.314Zm0,1.148a1.669,1.669,0,0,0-1.281.518,2.4,2.4,0,0,0-.567,1.47H14.7a2.4,2.4,0,0,0-.427-1.435A1.494,1.494,0,0,0,12.992,8.462Zm7.63,6.678a2.735,2.735,0,0,1-2.191-.98,4.4,4.4,0,0,1-.833-2.912,4.454,4.454,0,0,1,.84-2.94,2.754,2.754,0,0,1,2.212-.994,2.727,2.727,0,0,1,1.4.322,2.88,2.88,0,0,1,.882.784h.084q-.028-.182-.07-.56a6.159,6.159,0,0,1-.042-.672V4.36h1.484V15H23.226l-.252-1.008H22.9a2.662,2.662,0,0,1-.868.819A2.71,2.71,0,0,1,20.622,15.14Zm.35-1.218a1.788,1.788,0,0,0,1.54-.609,3.074,3.074,0,0,0,.448-1.827v-.224a3.943,3.943,0,0,0-.427-2.023,1.687,1.687,0,0,0-1.575-.707,1.517,1.517,0,0,0-1.372.735,3.755,3.755,0,0,0-.462,2.009,3.5,3.5,0,0,0,.462,1.96A1.56,1.56,0,0,0,20.972,13.922ZM33.208,7.454V15h-1.19l-.21-.994h-.07a2.138,2.138,0,0,1-1.008.861,3.444,3.444,0,0,1-1.358.273,2.856,2.856,0,0,1-2.03-.658,2.745,2.745,0,0,1-.7-2.086V7.454h1.5v4.718q0,1.75,1.526,1.75a1.777,1.777,0,0,0,1.61-.686,3.583,3.583,0,0,0,.448-1.96V7.454ZM38.57,15.14a3.449,3.449,0,0,1-2.52-.931,3.952,3.952,0,0,1-.952-2.933,4.823,4.823,0,0,1,.462-2.268,2.938,2.938,0,0,1,1.274-1.281,4.019,4.019,0,0,1,1.848-.413,5.262,5.262,0,0,1,2.1.434l-.448,1.2a6.967,6.967,0,0,0-.833-.266,3.389,3.389,0,0,0-.833-.112q-2.044,0-2.044,2.688a3.231,3.231,0,0,0,.5,1.96,1.739,1.739,0,0,0,1.484.672,4.008,4.008,0,0,0,1.113-.14,4.327,4.327,0,0,0,.889-.364v1.288a3.167,3.167,0,0,1-.882.35A5.156,5.156,0,0,1,38.57,15.14Zm6.79-7.826a3.039,3.039,0,0,1,2.338.917,3.522,3.522,0,0,1,.854,2.5v.812H43.484a2.591,2.591,0,0,0,.609,1.778,2.134,2.134,0,0,0,1.631.616,5.7,5.7,0,0,0,1.3-.133,6.667,6.667,0,0,0,1.169-.4v1.232a6.116,6.116,0,0,1-1.148.378,6.483,6.483,0,0,1-1.372.126,4.139,4.139,0,0,1-1.939-.434,3.083,3.083,0,0,1-1.3-1.3,4.386,4.386,0,0,1-.469-2.121,4.919,4.919,0,0,1,.427-2.156,3.15,3.15,0,0,1,1.19-1.351A3.34,3.34,0,0,1,45.36,7.314Zm0,1.148a1.669,1.669,0,0,0-1.281.518,2.4,2.4,0,0,0-.567,1.47h3.556a2.4,2.4,0,0,0-.427-1.435A1.494,1.494,0,0,0,45.36,8.462Zm7.63,6.678a2.735,2.735,0,0,1-2.191-.98,4.4,4.4,0,0,1-.833-2.912,4.454,4.454,0,0,1,.84-2.94,2.754,2.754,0,0,1,2.212-.994,2.727,2.727,0,0,1,1.4.322,2.88,2.88,0,0,1,.882.784h.084q-.028-.182-.07-.56a6.159,6.159,0,0,1-.042-.672V4.36h1.484V15H55.594l-.252-1.008h-.07a2.662,2.662,0,0,1-.868.819A2.71,2.71,0,0,1,52.99,15.14Zm.35-1.218a1.788,1.788,0,0,0,1.54-.609,3.074,3.074,0,0,0,.448-1.827v-.224A3.943,3.943,0,0,0,54.9,9.239a1.687,1.687,0,0,0-1.575-.707,1.517,1.517,0,0,0-1.372.735,3.755,3.755,0,0,0-.462,2.009,3.5,3.5,0,0,0,.462,1.96A1.56,1.56,0,0,0,53.34,13.922ZM71.176,7.314a2.569,2.569,0,0,1,1.918.658,2.938,2.938,0,0,1,.644,2.114V15H72.254V10.282q0-1.75-1.414-1.75a1.632,1.632,0,0,0-1.442.623,3.1,3.1,0,0,0-.434,1.785V15h-1.47V10.282q0-1.75-1.428-1.75a1.547,1.547,0,0,0-1.463.686,3.975,3.975,0,0,0-.4,1.974V15H62.72V7.454H63.9l.21,1.008h.084a2.059,2.059,0,0,1,.938-.868,2.985,2.985,0,0,1,1.274-.28,2.249,2.249,0,0,1,2.3,1.218h.112a2.194,2.194,0,0,1,1.008-.924A3.232,3.232,0,0,1,71.176,7.314Zm7.756,0a3.128,3.128,0,0,1,2.121.623A2.473,2.473,0,0,1,81.76,9.89V15H80.71l-.294-1.05H80.36a3.372,3.372,0,0,1-1.029.9,3.206,3.206,0,0,1-1.491.287,2.578,2.578,0,0,1-1.694-.553,2.111,2.111,0,0,1-.672-1.729,2,2,0,0,1,.868-1.75,5.024,5.024,0,0,1,2.674-.658l1.288-.042v-.42a1.522,1.522,0,0,0-.378-1.169,1.527,1.527,0,0,0-1.064-.343,3.651,3.651,0,0,0-1.106.168,7.516,7.516,0,0,0-1.022.406l-.476-1.078A6.041,6.041,0,0,1,77.483,7.5,5.483,5.483,0,0,1,78.932,7.314Zm.35,4.088a3.377,3.377,0,0,0-1.785.427,1.226,1.226,0,0,0-.5,1.043,1,1,0,0,0,.35.854,1.463,1.463,0,0,0,.91.266,2.17,2.17,0,0,0,1.449-.49,1.815,1.815,0,0,0,.581-1.47v-.658Zm8.582-4.088a2.835,2.835,0,0,1,2.016.658,2.787,2.787,0,0,1,.7,2.114V15H89.11V10.3q0-1.764-1.554-1.764a1.74,1.74,0,0,0-1.6.686,3.708,3.708,0,0,0-.434,1.974V15H84.042V7.454h1.176l.21,1.008h.084a2.184,2.184,0,0,1,1-.868A3.32,3.32,0,0,1,87.864,7.314Zm11.494.14V15h-1.19l-.21-.994h-.07a2.138,2.138,0,0,1-1.008.861,3.444,3.444,0,0,1-1.358.273,2.856,2.856,0,0,1-2.03-.658,2.745,2.745,0,0,1-.7-2.086V7.454h1.5v4.718q0,1.75,1.526,1.75a1.777,1.777,0,0,0,1.61-.686,3.583,3.583,0,0,0,.448-1.96V7.454Zm5.25-.14a3.128,3.128,0,0,1,2.121.623,2.473,2.473,0,0,1,.707,1.953V15h-1.05l-.294-1.05h-.056a3.372,3.372,0,0,1-1.029.9,3.206,3.206,0,0,1-1.491.287,2.578,2.578,0,0,1-1.694-.553,2.111,2.111,0,0,1-.672-1.729,2,2,0,0,1,.868-1.75,5.024,5.024,0,0,1,2.674-.658l1.288-.042v-.42a1.522,1.522,0,0,0-.378-1.169,1.527,1.527,0,0,0-1.064-.343,3.651,3.651,0,0,0-1.106.168,7.516,7.516,0,0,0-1.022.406l-.476-1.078a6.041,6.041,0,0,1,1.225-.469A5.483,5.483,0,0,1,104.608,7.314Zm.35,4.088a3.377,3.377,0,0,0-1.785.427,1.226,1.226,0,0,0-.5,1.043,1,1,0,0,0,.35.854,1.463,1.463,0,0,0,.91.266,2.17,2.17,0,0,0,1.449-.49,1.815,1.815,0,0,0,.581-1.47v-.658ZM111.2,15h-1.484V4.36H111.2Zm8.554.14a2.735,2.735,0,0,1-2.191-.98,4.4,4.4,0,0,1-.833-2.912,4.454,4.454,0,0,1,.84-2.94,2.754,2.754,0,0,1,2.212-.994,2.727,2.727,0,0,1,1.4.322,2.88,2.88,0,0,1,.882.784h.084q-.028-.182-.07-.56a6.159,6.159,0,0,1-.042-.672V4.36h1.484V15H122.36l-.252-1.008h-.07a2.662,2.662,0,0,1-.868.819A2.71,2.71,0,0,1,119.756,15.14Zm.35-1.218a1.788,1.788,0,0,0,1.54-.609,3.074,3.074,0,0,0,.448-1.827v-.224a3.943,3.943,0,0,0-.427-2.023,1.687,1.687,0,0,0-1.575-.707,1.517,1.517,0,0,0-1.372.735,3.755,3.755,0,0,0-.462,2.009,3.5,3.5,0,0,0,.462,1.96A1.56,1.56,0,0,0,120.106,13.922Zm8.666-6.608a3.128,3.128,0,0,1,2.121.623A2.473,2.473,0,0,1,131.6,9.89V15h-1.05l-.294-1.05H130.2a3.372,3.372,0,0,1-1.029.9,3.206,3.206,0,0,1-1.491.287,2.578,2.578,0,0,1-1.694-.553,2.111,2.111,0,0,1-.672-1.729,2,2,0,0,1,.868-1.75,5.024,5.024,0,0,1,2.674-.658l1.288-.042v-.42a1.522,1.522,0,0,0-.378-1.169,1.527,1.527,0,0,0-1.064-.343,3.651,3.651,0,0,0-1.106.168,7.516,7.516,0,0,0-1.022.406L126.1,7.972a6.041,6.041,0,0,1,1.225-.469A5.483,5.483,0,0,1,128.772,7.314Zm.35,4.088a3.377,3.377,0,0,0-1.785.427,1.226,1.226,0,0,0-.5,1.043,1,1,0,0,0,.35.854,1.463,1.463,0,0,0,.91.266,2.17,2.17,0,0,0,1.449-.49,1.815,1.815,0,0,0,.581-1.47v-.658Zm7.476,2.534a3.829,3.829,0,0,0,.6-.049,2.762,2.762,0,0,0,.532-.133v1.12a3.06,3.06,0,0,1-.651.189,4.239,4.239,0,0,1-.8.077,2.991,2.991,0,0,1-1.134-.21,1.65,1.65,0,0,1-.819-.728,2.884,2.884,0,0,1-.3-1.442V8.588h-1.05V7.916l1.106-.56.518-1.6h.91V7.454h2.156V8.588h-2.156v4.144a1.222,1.222,0,0,0,.3.91A1.084,1.084,0,0,0,136.6,13.936Zm5.572-6.622a3.128,3.128,0,0,1,2.121.623A2.473,2.473,0,0,1,145,9.89V15h-1.05l-.294-1.05H143.6a3.373,3.373,0,0,1-1.029.9,3.206,3.206,0,0,1-1.491.287,2.578,2.578,0,0,1-1.694-.553,2.111,2.111,0,0,1-.672-1.729,2,2,0,0,1,.868-1.75,5.024,5.024,0,0,1,2.674-.658l1.288-.042v-.42a1.522,1.522,0,0,0-.378-1.169,1.527,1.527,0,0,0-1.064-.343,3.651,3.651,0,0,0-1.106.168,7.516,7.516,0,0,0-1.022.406L139.5,7.972a6.041,6.041,0,0,1,1.225-.469A5.483,5.483,0,0,1,142.17,7.314Zm.35,4.088a3.377,3.377,0,0,0-1.785.427,1.226,1.226,0,0,0-.5,1.043,1,1,0,0,0,.35.854,1.463,1.463,0,0,0,.91.266,2.17,2.17,0,0,0,1.449-.49,1.815,1.815,0,0,0,.581-1.47v-.658ZM4.2,35.14a3.449,3.449,0,0,1-2.52-.931,3.952,3.952,0,0,1-.952-2.933,4.823,4.823,0,0,1,.462-2.268,2.938,2.938,0,0,1,1.274-1.281,4.019,4.019,0,0,1,1.848-.413,5.048,5.048,0,0,1,1.183.133,5.025,5.025,0,0,1,.917.3l-.448,1.2a6.966,6.966,0,0,0-.833-.266,3.389,3.389,0,0,0-.833-.112q-2.044,0-2.044,2.688a3.231,3.231,0,0,0,.5,1.96,1.739,1.739,0,0,0,1.484.672,4.008,4.008,0,0,0,1.113-.14,4.327,4.327,0,0,0,.889-.364v1.288a3.167,3.167,0,0,1-.882.35A5.156,5.156,0,0,1,4.2,35.14Zm10.472-3.92a4.056,4.056,0,0,1-.966,2.9,3.413,3.413,0,0,1-2.6,1.022,3.528,3.528,0,0,1-1.813-.462,3.231,3.231,0,0,1-1.246-1.337,4.55,4.55,0,0,1-.455-2.121,4.067,4.067,0,0,1,.952-2.891,3.4,3.4,0,0,1,2.6-1.015,3.6,3.6,0,0,1,1.827.455,3.194,3.194,0,0,1,1.246,1.323A4.54,4.54,0,0,1,14.672,31.22Zm-5.558,0A3.517,3.517,0,0,0,9.6,33.208a1.718,1.718,0,0,0,1.533.714,1.718,1.718,0,0,0,1.533-.714,3.517,3.517,0,0,0,.483-1.988,3.4,3.4,0,0,0-.49-1.981,1.756,1.756,0,0,0-1.54-.693,1.719,1.719,0,0,0-1.526.693A3.48,3.48,0,0,0,9.114,31.22ZM18.032,35H16.548V24.36h1.484Zm3.808,0H20.356V24.36H21.84Zm5.292-7.686a3.039,3.039,0,0,1,2.338.917,3.522,3.522,0,0,1,.854,2.5v.812H25.256a2.591,2.591,0,0,0,.609,1.778,2.134,2.134,0,0,0,1.631.616,5.7,5.7,0,0,0,1.3-.133,6.667,6.667,0,0,0,1.169-.4v1.232a6.116,6.116,0,0,1-1.148.378,6.483,6.483,0,0,1-1.372.126,4.139,4.139,0,0,1-1.939-.434,3.083,3.083,0,0,1-1.3-1.3,4.386,4.386,0,0,1-.469-2.121,4.919,4.919,0,0,1,.427-2.156,3.15,3.15,0,0,1,1.19-1.351A3.34,3.34,0,0,1,27.132,27.314Zm0,1.148a1.669,1.669,0,0,0-1.281.518,2.4,2.4,0,0,0-.567,1.47H28.84a2.4,2.4,0,0,0-.427-1.435A1.494,1.494,0,0,0,27.132,28.462ZM35.21,35.14a3.449,3.449,0,0,1-2.52-.931,3.952,3.952,0,0,1-.952-2.933,4.823,4.823,0,0,1,.462-2.268,2.938,2.938,0,0,1,1.274-1.281,4.019,4.019,0,0,1,1.848-.413,5.262,5.262,0,0,1,2.1.434l-.448,1.2a6.966,6.966,0,0,0-.833-.266,3.389,3.389,0,0,0-.833-.112q-2.044,0-2.044,2.688a3.231,3.231,0,0,0,.5,1.96,1.739,1.739,0,0,0,1.484.672,4.008,4.008,0,0,0,1.113-.14,4.327,4.327,0,0,0,.889-.364v1.288a3.167,3.167,0,0,1-.882.35A5.156,5.156,0,0,1,35.21,35.14Zm6.538-1.2a3.829,3.829,0,0,0,.6-.049,2.762,2.762,0,0,0,.532-.133v1.12a3.061,3.061,0,0,1-.651.189,4.239,4.239,0,0,1-.805.077,2.991,2.991,0,0,1-1.134-.21,1.65,1.65,0,0,1-.819-.728,2.884,2.884,0,0,1-.3-1.442V28.588h-1.05v-.672l1.106-.56.518-1.6h.91v1.694h2.156v1.134H40.656v4.144a1.222,1.222,0,0,0,.3.91A1.084,1.084,0,0,0,41.748,33.936Zm3.4-9.352a.93.93,0,0,1,.588.2.976.976,0,0,1,0,1.309.91.91,0,0,1-.588.2.923.923,0,0,1-.609-.2,1,1,0,0,1,0-1.309A.944.944,0,0,1,45.15,24.584Zm.728,2.87V35H44.394V27.454Zm8.974,3.766a4.056,4.056,0,0,1-.966,2.9,3.413,3.413,0,0,1-2.6,1.022,3.528,3.528,0,0,1-1.813-.462,3.231,3.231,0,0,1-1.246-1.337,4.55,4.55,0,0,1-.455-2.121,4.067,4.067,0,0,1,.952-2.891,3.4,3.4,0,0,1,2.6-1.015,3.6,3.6,0,0,1,1.827.455A3.194,3.194,0,0,1,54.4,29.092,4.54,4.54,0,0,1,54.852,31.22Zm-5.558,0a3.517,3.517,0,0,0,.483,1.988,2,2,0,0,0,3.066,0,3.517,3.517,0,0,0,.483-1.988,3.4,3.4,0,0,0-.49-1.981,1.756,1.756,0,0,0-1.54-.693,1.719,1.719,0,0,0-1.526.693A3.48,3.48,0,0,0,49.294,31.22ZM60.55,27.314a2.835,2.835,0,0,1,2.016.658,2.787,2.787,0,0,1,.7,2.114V35H61.8V30.3q0-1.764-1.554-1.764a1.74,1.74,0,0,0-1.6.686,3.708,3.708,0,0,0-.434,1.974V35H56.728V27.454H57.9l.21,1.008H58.2a2.184,2.184,0,0,1,1-.868A3.32,3.32,0,0,1,60.55,27.314ZM70.672,27.2q0,.364-.028.707t-.056.567h.1a2.212,2.212,0,0,1,.973-.868,3.129,3.129,0,0,1,1.323-.28,2.883,2.883,0,0,1,2.037.658,2.75,2.75,0,0,1,.707,2.1V35h-1.47V30.3q0-1.764-1.554-1.764a1.733,1.733,0,0,0-1.6.693,3.747,3.747,0,0,0-.434,1.981V35H69.188V24.36h1.484ZM84.658,31.22a4.056,4.056,0,0,1-.966,2.9,3.413,3.413,0,0,1-2.6,1.022,3.528,3.528,0,0,1-1.813-.462,3.231,3.231,0,0,1-1.246-1.337,4.55,4.55,0,0,1-.455-2.121,4.067,4.067,0,0,1,.952-2.891,3.4,3.4,0,0,1,2.6-1.015,3.6,3.6,0,0,1,1.827.455A3.194,3.194,0,0,1,84.2,29.092,4.54,4.54,0,0,1,84.658,31.22Zm-5.558,0a3.517,3.517,0,0,0,.483,1.988,2,2,0,0,0,3.066,0,3.517,3.517,0,0,0,.483-1.988,3.4,3.4,0,0,0-.49-1.981,1.756,1.756,0,0,0-1.54-.693,1.719,1.719,0,0,0-1.526.693A3.48,3.48,0,0,0,79.1,31.22Zm13.93-3.766V35H91.84l-.21-.994h-.07a2.138,2.138,0,0,1-1.008.861,3.444,3.444,0,0,1-1.358.273,2.856,2.856,0,0,1-2.03-.658,2.745,2.745,0,0,1-.7-2.086V27.454h1.5v4.718q0,1.75,1.526,1.75a1.777,1.777,0,0,0,1.61-.686,3.583,3.583,0,0,0,.448-1.96V27.454Zm6.048-.14q.2,0,.427.021t.4.049L99.75,28.77a2.9,2.9,0,0,0-.756-.1,2.123,2.123,0,0,0-1.855,1.085,2.508,2.508,0,0,0-.3,1.267V35H95.354V27.454H96.53l.2,1.344h.056a3.762,3.762,0,0,1,.938-1.043A2.164,2.164,0,0,1,99.078,27.314Zm7.238,5.558a1.945,1.945,0,0,1-.812,1.687,3.817,3.817,0,0,1-2.254.581,6.746,6.746,0,0,1-1.365-.119,4.716,4.716,0,0,1-1.043-.343v-1.3A7.1,7.1,0,0,0,102,33.8a4.726,4.726,0,0,0,1.295.189,2.124,2.124,0,0,0,1.211-.266.835.835,0,0,0,.371-.714.783.783,0,0,0-.14-.455,1.574,1.574,0,0,0-.525-.42,8.611,8.611,0,0,0-1.127-.5,9.87,9.87,0,0,1-1.225-.581,2.239,2.239,0,0,1-.763-.686,1.821,1.821,0,0,1-.266-1.029,1.7,1.7,0,0,1,.791-1.5,3.728,3.728,0,0,1,2.093-.525,5.768,5.768,0,0,1,1.295.14,6.634,6.634,0,0,1,1.183.392l-.49,1.134a8.327,8.327,0,0,0-1.008-.357,3.828,3.828,0,0,0-1.05-.147,2.013,2.013,0,0,0-1.022.21.653.653,0,0,0-.35.588.687.687,0,0,0,.168.462,1.791,1.791,0,0,0,.567.392q.4.2,1.1.476a8.9,8.9,0,0,1,1.2.546,2.085,2.085,0,0,1,.756.686A1.9,1.9,0,0,1,106.316,32.872Z" transform="translate(311.153 134.9)" fill="#394a56"></path><path id="Path_127914" data-name="Path 127914" d="M1.806-12.768a36.634,36.634,0,0,1,.357-5.1,19.767,19.767,0,0,1,1.281-4.788,12.985,12.985,0,0,1,2.562-3.99,11.185,11.185,0,0,1,4.179-2.73,17.026,17.026,0,0,1,6.153-.987q.882,0,2.016.084a13.538,13.538,0,0,1,1.89.252v4.368a13.576,13.576,0,0,0-3.612-.462,10.747,10.747,0,0,0-5.88,1.365,7.216,7.216,0,0,0-2.94,3.717A19.013,19.013,0,0,0,6.8-15.708h.252a7.547,7.547,0,0,1,2.52-2.5,7.866,7.866,0,0,1,4.242-1.029,8.261,8.261,0,0,1,6.258,2.457A9.589,9.589,0,0,1,22.428-9.87,10.31,10.31,0,0,1,19.74-2.31,9.734,9.734,0,0,1,12.474.42,10.515,10.515,0,0,1,7.056-1.008,9.779,9.779,0,0,1,3.213-5.355,17.074,17.074,0,0,1,1.806-12.768ZM12.39-3.906a4.537,4.537,0,0,0,3.486-1.449A6.4,6.4,0,0,0,17.22-9.828a5.809,5.809,0,0,0-1.176-3.843,4.336,4.336,0,0,0-3.528-1.407,5.678,5.678,0,0,0-2.856.693,5.052,5.052,0,0,0-1.869,1.764,4.193,4.193,0,0,0-.651,2.205,8.234,8.234,0,0,0,.588,3.045A6.182,6.182,0,0,0,9.471-4.893,4.335,4.335,0,0,0,12.39-3.906ZM46.284-14.994A29.715,29.715,0,0,1,45.276-6.72,10.342,10.342,0,0,1,42-1.428,9.215,9.215,0,0,1,35.994.42q-5.292,0-7.77-4.095T25.746-14.994a29.893,29.893,0,0,1,1.008-8.316A10.408,10.408,0,0,1,30.009-28.6a9.129,9.129,0,0,1,5.985-1.848,8.5,8.5,0,0,1,7.77,4.074Q46.284-22.3,46.284-14.994Zm-15.2,0A24.238,24.238,0,0,0,32.151-6.72a3.865,3.865,0,0,0,3.843,2.772A3.909,3.909,0,0,0,39.837-6.7a23.363,23.363,0,0,0,1.113-8.295,23.548,23.548,0,0,0-1.113-8.316,3.911,3.911,0,0,0-3.843-2.772,3.865,3.865,0,0,0-3.843,2.772A24.4,24.4,0,0,0,31.08-14.994ZM56.322-30.408a5.9,5.9,0,0,1,5.145,2.457,11.8,11.8,0,0,1,1.743,6.909,12.478,12.478,0,0,1-1.659,6.951,5.825,5.825,0,0,1-5.229,2.5,5.639,5.639,0,0,1-4.977-2.5,12.237,12.237,0,0,1-1.7-6.951,12.645,12.645,0,0,1,1.6-6.909A5.615,5.615,0,0,1,56.322-30.408Zm20.538.42L60.228,0H55.944L72.576-29.988Zm-20.5,3.234q-2.352,0-2.352,5.754t2.352,5.754Q58.8-15.246,58.8-21T56.364-26.754Zm19.992,8.316a5.856,5.856,0,0,1,5.082,2.478A11.714,11.714,0,0,1,83.2-9.072a12.478,12.478,0,0,1-1.659,6.951,5.782,5.782,0,0,1-5.187,2.5,5.68,5.68,0,0,1-5.019-2.5,12.237,12.237,0,0,1-1.7-6.951,12.533,12.533,0,0,1,1.617-6.888A5.651,5.651,0,0,1,76.356-18.438Zm0,3.7Q74-14.742,74-9.03q0,5.8,2.352,5.8,2.478,0,2.478-5.8Q78.834-14.742,76.356-14.742Z" transform="translate(311.153 122.9)" fill="#004b8b"></path><g id="Group_52086" data-name="Group 52086" transform="translate(183.088 68.9)"><g id="Group_52085" data-name="Group 52085" clip-path="url(#clip-path)"><path id="Path_127846" data-name="Path 127846" d="M63.558,36.008H5.48A5.485,5.485,0,0,1,0,30.53v-2.9A1.124,1.124,0,0,1,1.123,26.5H27.259a1.124,1.124,0,0,1,.8.329l1.122,1.123H39.861l1.123-1.123a1.12,1.12,0,0,1,.794-.329H67.913a1.125,1.125,0,0,1,1.125,1.123v2.9a5.486,5.486,0,0,1-5.48,5.478M2.247,28.749V30.53A3.237,3.237,0,0,0,5.48,33.761H63.558A3.235,3.235,0,0,0,66.79,30.53V28.749H42.245l-1.123,1.123a1.123,1.123,0,0,1-.794.329H28.711a1.124,1.124,0,0,1-.8-.329l-1.122-1.123Z" transform="translate(0 15.604)" fill="#22b8b0"></path><path id="Path_127847" data-name="Path 127847" d="M63.067,43.23H60.821V4.028A1.783,1.783,0,0,0,59.04,2.247H6.768A1.784,1.784,0,0,0,4.989,4.028v39.2H2.742V4.028A4.031,4.031,0,0,1,6.768,0H59.04a4.032,4.032,0,0,1,4.028,4.028Z" transform="translate(1.614 -0.001)" fill="#22b8b0"></path><path id="Path_127848" data-name="Path 127848" d="M25.158,32.037A14.191,14.191,0,1,1,39.349,17.846,14.207,14.207,0,0,1,25.158,32.037m0-26.136A11.945,11.945,0,1,0,37.1,17.846,11.959,11.959,0,0,0,25.158,5.9" transform="translate(6.457 2.151)" fill="#22b8b0"></path><rect id="Rectangle_28674" data-name="Rectangle 28674" width="2.247" height="10.266" transform="translate(40.986 30.957) rotate(-45)" fill="#22b8b0"></rect></g></g><g id="Group_52089" data-name="Group 52089" transform="translate(473.711 68.9)"><path id="Path_127849" data-name="Path 127849" d="M21.135,12.9H19.016v10.44L24.275,28.6l.072.072,1.425-1.426.074-.071-4.711-4.713Z" transform="translate(4.285 2.906)" fill="#004b8b"></path><g id="Group_52088" data-name="Group 52088" transform="translate(0 0)"><g id="Group_52087" data-name="Group 52087" clip-path="url(#clip-path-2)"><path id="Path_127850" data-name="Path 127850" d="M40.177,24.212A17.144,17.144,0,1,0,23.033,41.356,17.164,17.164,0,0,0,40.177,24.212m-2.119,0A15.025,15.025,0,1,1,23.033,9.186,15.041,15.041,0,0,1,38.058,24.212" transform="translate(1.327 1.592)" fill="#004b8b"></path><path id="Path_127851" data-name="Path 127851" d="M23.942,0A25.087,25.087,0,0,0,4.634,8.971l-.665.667V5.9H1.849v7.348H9.2v-2.12H5.463l.724-.725A23.106,23.106,0,0,1,23.942,2.119a23.687,23.687,0,0,1,0,47.374A23.452,23.452,0,0,1,13.39,47.019l-.092-.045-.944,1.9.092.047a25.555,25.555,0,0,0,11.495,2.7h0A25.806,25.806,0,1,0,23.942,0" transform="translate(0.417 0)" fill="#004b8b"></path><path id="Path_127852" data-name="Path 127852" d="M7.583,35.763,7.506,35.7,6.127,37.3l.077.067A25.976,25.976,0,0,0,8.79,39.319l.085.055,1.167-1.767-.086-.056a23.638,23.638,0,0,1-2.372-1.788" transform="translate(1.381 8.044)" fill="#004b8b"></path><path id="Path_127853" data-name="Path 127853" d="M4.106,31.765l-.058-.085L2.369,32.8l-.083.058.055.085a25.717,25.717,0,0,0,2.027,2.655l.067.077,1.6-1.391-.066-.076a23.44,23.44,0,0,1-1.861-2.441" transform="translate(0.515 7.139)" fill="#004b8b"></path><path id="Path_127854" data-name="Path 127854" d="M3.281,30.418l-.047-.092c-.379-.743-.923-1.9-1.22-2.68l-.037-.1L0,28.307l.036.094c.325.847.907,2.09,1.312,2.888l.044.089,1.8-.915Z" transform="translate(0 6.208)" fill="#004b8b"></path></g></g></g><g id="Group_52090" data-name="Group 52090" transform="translate(48 249.9)"><path id="Path_127855" data-name="Path 127855" d="M2.218,28.762H17.226v9.265H2.218ZM0,40.243H19.443v-13.7H0Z" transform="translate(0 15.083)" fill="#6d1c75"></path><path id="Path_127856" data-name="Path 127856" d="M35,40.243H15.561v-13.7H35ZM17.779,38.026H32.785V28.761H17.779Z" transform="translate(8.843 15.083)" fill="#6d1c75"></path><path id="Path_127857" data-name="Path 127857" d="M33.338,28.762H48.346v9.265H33.338ZM31.119,40.243H50.562v-13.7H31.119Z" transform="translate(17.684 15.083)" fill="#6d1c75"></path><rect id="Rectangle_28677" data-name="Rectangle 28677" width="11.483" height="2.218" transform="translate(3.98 57.418)" fill="#6d1c75"></rect><rect id="Rectangle_28678" data-name="Rectangle 28678" width="2.218" height="4.308" transform="translate(8.613 54.218)" fill="#6d1c75"></rect><rect id="Rectangle_28679" data-name="Rectangle 28679" width="11.483" height="2.218" transform="translate(28.382 57.418)" fill="#6d1c75"></rect><rect id="Rectangle_28680" data-name="Rectangle 28680" width="2.218" height="4.308" transform="translate(33.015 54.218)" fill="#6d1c75"></rect><path id="Path_127858" data-name="Path 127858" d="M17.779,2.218H32.784v9.265H17.779ZM15.56,13.7H35V0H15.56Z" transform="translate(8.842)" fill="#6d1c75"></path><rect id="Rectangle_28681" data-name="Rectangle 28681" width="11.483" height="2.218" transform="translate(28.382 15.79)" fill="#6d1c75"></rect><rect id="Rectangle_28682" data-name="Rectangle 28682" width="2.218" height="4.306" transform="translate(33.015 12.592)" fill="#6d1c75"></rect><rect id="Rectangle_28683" data-name="Rectangle 28683" width="11.483" height="2.218" transform="translate(52.783 57.418)" fill="#6d1c75"></rect><rect id="Rectangle_28684" data-name="Rectangle 28684" width="2.218" height="4.308" transform="translate(57.417 54.218)" fill="#6d1c75"></rect><rect id="Rectangle_28685" data-name="Rectangle 28685" width="2.218" height="17.224" transform="translate(33.015 21.205)" fill="#6d1c75"></rect><path id="Path_127859" data-name="Path 127859" d="M56.515,28.027H54.3v-7.5H7.71v7.5H5.491V18.306H56.515Z" transform="translate(3.12 10.402)" fill="#6d1c75"></path></g></g></g></g></svg>